<?xml version="1.0" encoding="UTF-8"?>
<svg xmlns="http://www.w3.org/2000/svg" xml:space="preserve" viewBox="0 0 480 480" version="1.2" baseProfile="tiny-ps">
  <path d="M1 169V5q0-4 4-4h472q4 0 4 4v472q0 4-4 4H5q-4 0-4-4z"/>
  <path fill="#fc9329" d="m319 256-7-5q-11-10-26-9l-89-1q-22 0-36 17-2-2 0-5 2-6 6-11l1-3 2-2 1-1 1-1 7-4-11-1q-20-4-35-18a65 65 0 0 1-12-71q5-12 15-19 7-1 14-1 1 5-3 6l-10 10q-10 14-9 30l1 6q-1 11 4 18c9 19 31 30 53 25q9-3 16-9l5-5q7-8 10 2 8 14 21 23l1 1h3q12-7 19-19l4-6q4-9 9-1l11 9c19 11 43 6 58-12q10-10 9-24 3-15-2-28-3-10-11-16l-6-5-1-3q2-4 5-2h7q7 2 11 10 8 13 11 30l-1 12c-3 35-33 59-65 58q0 1 0 0h1q4 0 8 5 7 5 10 14 2 3 0 6"/>
  <path fill="#b22100" d="m355 344-8 9-7 7q-11 7-12-5-1-9 2-18l4-16v-1l-3 1q-8 3-9-8v-6l1-6q4-2 7 1 2 6 0 10v1q0 2 0 0l11-11q5-4 6 3l-2 16-3 15 1 1q7-9 10-20l4-11q1-2 3-3 3 1 3 3 3 5 3 10 5-20 5-39-1-7-1-14 2-3 1-7l-5-13q-2-3-1-7 5-3 6 2 5 5 9 12 12 20 12 42v1q1 5-2 7-4-1-5-6-3 25-15 46-2 6-9 7c-3-3 0-7-1-11l-4 6zm-197-40 1 7q2 14-12 9l4 16q3 8 3 18 0 5-4 8-4 1-9-3-7-6-13-15l-2-2-1-1-2-2-1-3-1 10-3 1a84 84 0 0 1-19-41q-2-6-2-12l-2 3q-5 3-5-1-3-9 2-17 9 2 15-5l2 1q2 2 2 4 0 18 5 36l2-8q0-3 3-4 3 0 4 4l4 13q3 9 10 17l-4-28-1-2q-1-4 2-7 5 0 6 4l7 5c2-2 0-5 2-7q4-4 7 2"/>
  <path fill="#b62200" d="M109 275q-4 2-6 5-3 7-5 1l-5-2q-3-5-1-8 5-16 15-30 6-10 16-6 22 8 45-1 4-1 4 3l-1 1-1 1-1 2q-5 7-8 17l-6 14c-5-5-4-12-6-18q-2 9-1 16-5 0-6-4-2-4-5-6l-3-4q-2 4-3 7-2 12-2 24 1 3-2 4-2 1-5-2-6-10-7-21v-15q-2 8-3 17z"/>
  <path fill="#b42101" d="M319 256q-4-18-21-26 55-2 66-56v-13q-3-13-8-25-4-8-11-14l-1-1q6-6 11 0 11 13 15 27 4 12 10 23l1 3q-3 1-6-1l-2-1-1-2q1 12-2 23-6 18-21 28-5 2-10 6l-1 4-3 1q-3 2-8 3h-12l14 4q5-1 9 1 4 8-2 12-2-1-5-1-7-2-8 6l-2 1q-2 0-2-2"/>
  <path fill="#f55400" d="M204 50a166 166 0 0 1 76 0q4 7-2 9l-10 4q-3 1-1 3-6 9-13 12-4 2-4-3-1-2 1-8l-6 11q-3 7-6 1-4-6-9-11 3 5-1 8-4 2-8-3l-2-4q3-2 1-5-3-5-7-5h-5q-9-1-4-9"/>
  <path fill="#861400" d="M368 340c10-21 13-31 15-51l7 11q1-13-2-25l-9-25q-1-6-4-12-4-8-12-13 5-6 9 0 23 26 27 60 2 13-1 26l-5 12q-1 4-4 3-2-1-2-5l-2-10q-1 17-8 30-5 3-9-1"/>
  <path fill="#b42101" d="M136 123c-29 28-25 85 22 102l10 3v5q-9 3-16 2h-3l-4-3h-2q-1-2 1-3 1-1-1-2-8-5-15-10-11-9-16-23-3-13-1-26l-4 4q-2 2-6 3-2-3 1-5l8-18q5-15 13-27 4-8 13-4z"/>
  <path fill="#8e1500" d="M217 125a70 70 0 0 0-45-27l-2-1h-16l-16 1q-4-3-4-8c-1-3-5-2-7-5l-3-13q3-1 5 1 17 9 35 12 24 6 44 20 6 5 11 12l2 7q-1 2-4 1"/>
  <path fill="#250501" d="M161 395zc11 0 13 1 13 12q-1 4-4 3l-51 4q-21 3-42-1-8 0-12-10 4-3 7-1 27 5 55 2l24-2q7 0 9-7"/>
  <path fill="#b92200" d="M334 251q6-3 4-9l1-2 27-5q1 8 4 15 3 6 2 13-3-1-4-5l-1-5q2 18-8 35l-3 3q-3 3-5-2v-3q2-16-6-33-3 2-5 7 0 6-6 9z"/>
  <path fill="#fa5900" d="M204 50q-2 10 7 7c5-2 13 4 13 9q0 4-5 3-4 2-7-1 6 7 10 16 2 3 0 5-3 2-5-1-11-9-23-14l-22-7-6-2v-1q14-8 30-12h3q2-2 5-2"/>
  <path fill="#881400" d="M381 175c-9-11-10-25-17-37l-9-15q-4-6-11-2l-5-2q-14-8-30-8-3 1-7-2 11-4 22-3 13 3 25-1 4-1 5 2 13 15 19 35l5 18 5 11q3 1 2 3z"/>
  <path fill="#fa5900" d="m266 67-2-1-2-1q0-3 2-2l12-5q4-1 4-7h3q0 2 1 1l8 1 5 2 5 2 2 1 12 5q-1 4-4 4l-7 2q-22 7-40 21-3 3-6 1-2-2 0-6 5-10 12-18z"/>
  <path fill="#2a0701" d="M387 409q9 3 14 9 3 3 1 5t-4 0a210 210 0 0 0-67-15l-20-1q-4 0-3-3c1-9 1-9 9-9h12q0 4 4 4 21 1 42 6c4 1 7 5 12 4"/>
  <path fill="#8e1500" d="m108 241-2 5q-11 14-13 33-3 8-2 17l1 1q1 1 2-1l5-9 1 19q-8 6-16 1-3-13-1-26 4-26 19-47l2-2q5 2 4 9"/>
  <path fill="#861400" d="M136 122q-9-2-13 7l-11 23q-2 3-5 1 2-23 17-43 3-6 11-4 13 3 25 1 9-2 18 2-2 3-5 2-17-1-30 9z"/>
  <path fill="#951700" d="M322 97q-28-1-49 19-9 9-14 23-5 2-4-4l1-6 5-10q9-16 26-24 19-7 37-11 6-3 13-1 3 7-4 10z"/>
  <path fill="#3d0d04" d="m160 395 1 4q2 5-3 5-31 4-63 3l-28-4q-3-5 2-8l17 3h52c-3-2-7 3-9-3z"/>
  <path fill="#dd660a" d="M302 109q20-2 35 7l7 5v1q-6 1-12 1-5 1-8-2c-19-7-40-1-53 15q-5 8-7 16-3 6-7 1l2-5q10-30 40-38zm-166 13a58 58 0 0 1 43-13l4 1q31 8 40 40 2 0 2 2 0 4-4 4-4-1-3-4c-6-22-24-34-45-34l-6 1c-6 0-11 4-17 4z"/>
  <path fill="#d63500" d="m225 151-2-1q2-3 1-7 0-5-1-8-2-3-1-7 0-3 3-4 11 3 20 6h6l6 4c0 2-3 4 2 5l-1 9-1 3q-3 1-5-1-11-6-22 0-2 2-5 1"/>
  <path fill="#f9d190" d="M212 300c6-19 33-26 47-12l7 6h-4q-7-2-12 4h-5q-6-1-14 0-6-2-10 0-4 3-9 2"/>
  <path fill="#811200" d="M108 241q-2-4-3-9l2-4c5-6 5-6 12-2q12 8 26 6 1-1 2 1h20l1 2q-22 11-45 3-9-4-15 3"/>
  <path fill="#861400" d="M322 97q3-6 9-6 7 0 6-8 1-3 4-3 6-3 11-4h9q2-2 3 1-7 8-18 13 12 1 20-3-7 10-20 12-12 1-24-2"/>
  <path fill="#811200" d="M83 307q8 0 17-1l10 27 8 13q-3 3-9 2-12-16-12-36-4 7-3 16-10-9-11-21"/>
  <path fill="#f7b04b" d="M265 332c-9 14-29 16-44 5q2-6 8-6 3 1 7-2l15-3c5 1 11 0 14 6"/>
  <path fill="#811200" d="M366 235a89 89 0 0 1-38 6c-2-3 2-4 3-7l4-1q15 0 28-8 5-1 8 4l7 10q3 5 1 11-6-7-13-15"/>
  <path fill="#ed4800" d="M166 64q15 2 28 9 0 3-2 2-6 0-10 5l-5 1h-8q-10 0-19-5-2-6 4-9l5-2h3l2-1zm138 4c3-3 8-2 12-5q10 3 19 2 7-1 10 6l-1 1c-6 6-14 6-21 8h-9l-5-3q-6-2-5-9"/>
  <path fill="#a11b00" d="M333 269c5-5 5-11 9-17q0-3 3-2 3 4 1 9l-12 40-4 4-7-2v-2l1-2q3-14 9-28"/>
  <path fill="#551809" d="M129 395q2 3 5 2 7-1 13 1l-18 2H85l-11-1q-3-1-4-4l2-2h11q3 2 7 1h8q4 2 10 1z"/>
  <path fill="#f05000" d="m159 65-4 4q-4 2-5 6-3 2-6 1l-15-6q-14-8-19-22v-2q2-3 2-1c10 18 28 20 47 20"/>
  <path fill="#881400" d="M113 194q3 5 6 11 8 11 20 17l4 4q-3 2-7 1-4-2-10-3-14-9-19-26 0-6 6-4"/>
  <path fill="#a11b00" d="M138 259q5 2 6 6l3 5q8 16 12 34-4-2-8-2-4-2-4-5l-10-31q-1-3 1-7"/>
  <path fill="#710f00" d="M109 349q3-4 9-3h2q3-3 7 0l4 18q1 5-3 3-12-7-19-18"/>
  <path fill="#f7b75b" d="M237 330q-3 3-8 3t-8 4q-8-6-11-16 2-6 11-5l4 2q5 7 12 12"/>
  <path fill="#551809" d="M387 409c-2 4-4 1-5 1q-13-6-28-7l-26-2-3-2q1-1 4-3l9-1 5 1h5l4 1h2l3 1h2l2 1h2l5 2 4 1 2 1 3 1 3 2q4 2 7 3"/>
  <path fill="#781000" d="M368 340c2 2 5-1 8 1q-4 15-18 22c-3-2-2-7-5-10l1-4q2-4 7-2z"/>
  <path fill="#861400" d="M348 220q14-11 20-27c6-1 4 4 5 8q-3 10-11 17-4 2-9 5-3 2-5-3"/>
  <path fill="#300500" d="m325 382-12 8q-3 2-5-1-1-2 1-4 7-6 12-15c4-6 7 0 9 1 4 1 0 3-1 4z"/>
  <path fill="#b92200" d="M344 72zl3-3q16-6 25-22v1l1 5q-4 18-21 25-5 1-10 4-3-4 2-9"/>
  <path fill="#811200" d="M125 72c1 4 5 8 2 13q-18-10-18-33 1-1 3 1 5 9 12 16z"/>
  <path fill="#facd84" d="m212 300 11-4q4-3 7 1v2q-6 8-7 17-4 1-3-2-1-3-3-3-3 0-5 4 1 2-2 4-3-9 2-19"/>
  <path fill="#f05000" d="M372 46q-8 18-27 25-4-4-9-6 11-1 21-6 8-5 12-12 1-3 3-1"/>
  <path fill="#300500" d="M168 381c2 2 7 2 5 7q-1 4-3 2-13-6-20-17-1-2 1-2l5-3q4 2 5 6z"/>
  <path fill="#3d0d04" d="M227 406v-8l3-1h20l3 2 1 7-2 1q-12 2-25-1"/>
  <path fill="#fcc572" d="M270 302q3 7 2 16-7 3-14 0l-2-13q5-4 12-4z"/>
  <path fill="#f7b75b" d="M258 317c4 2 9-1 13 1q0 8-6 14-6-4-14-4 2-7 7-11"/>
  <path fill="#b62200" d="M320 258q2-3 3-8 0-2 2-3t3 2q1 2 3 2l1 3-3 12-3 6-6-13z"/>
  <path fill="#811200" d="m352 77 10-9q6-6 10-15 3 13-8 24h-3q-3 5-9 0"/>
  <path fill="#951700" d="M113 194q-4 0-6 4c-4-8-1-17 0-26l5-10q-1 15 1 32m260 7c-2-2-1-6-5-8q3-13 2-30l4 9 1 1v6q3 10-2 22"/>
  <path fill="#facd84" d="M269 302q-5 2-11 3-5-1-7-5l-1-1v-2c1-5 8-8 12-5l4 2 2 3 1 3z"/>
  <path fill="#660e00" d="m224 430 3 11q1 4-5 4-10-4-10-16 6-4 12 1"/>
  <path fill="#551809" d="M254 399q-14 1-26-1-2-6 4-5h17q6-1 5 6"/>
  <path fill="#781000" d="m234 442-2-10q7-5 16 0v10q-8 5-14 0"/>
  <path fill="#390600" d="m274 435 3-7c1-5 9-7 13-5v3q-5 8-14 12-4 2-2-3m-70-8 5 12q-13-3-19-16c6 0 11-2 14 4"/>
  <path fill="#f66500" d="m293 401-1-13q-2-3 1-5 3-1 5 3 4 6 2 14-3 3-7 1"/>
  <path fill="#250501" d="M227 406h26q2 5-4 5h-18q-4 1-4-5"/>
  <path fill="#a13600" d="M292 401c3 0 5-3 8 0q0 8-4 12-2 3-5 2t-1-4z"/>
  <path fill="#b92200" d="M125 72q-10-8-15-20v-5q6 13 19 21 3 3-1 6z"/>
  <path fill="#f66500" d="M196 397v-9q0-6 6-5 3 1 2 6v7q-4 5-8 1"/>
  <path fill="#8e1500" d="m106 153 6-1q-3 12-11 22-3 2-5 0-1-3 2-4 5-7 8-17"/>
  <path fill="#390600" d="M233 426q-3-9 6-7h4q7-2 6 7-8 4-16 0"/>
  <path fill="#f66500" d="m278 396-1-10q2-4 5-3 4 1 4 4v10q-3 3-8-1"/>
  <path fill="#811200" d="M134 90c0 3 4 4 4 7q-13 0-22-9z"/>
  <path fill="#f66500" d="M182 397q-2-6 2-12 1-2 4-2 3 2 2 4l-1 10q-3 3-7 0"/>
  <path fill="#660e00" d="M268 435q-1 7-8 9-6 2-5-4l2-7q6-2 11 2"/>
  <path fill="#a11b00" d="M126 224q2-3 5-1 5 2 12 3 3 0 6 2-2 2-6 3-9-1-17-7"/>
  <path fill="#a13600" d="M189 405q2 3 3 7 0 2-2 3h-3q-5-4-5-12 5-5 7 2"/>
  <path fill="#660e00" d="m232 427 16-1v6h-15z"/>
  <path fill="#fcc572" d="M210 319q-1-7 6-10 6-2 5 4l1 3 1 1q-7 0-13 4z"/>
  <path fill="#a13600" d="M221 403q1 5-1 11h-7q-3-5-3-12 5-2 11 1m40 10-1-11q6-4 11 0 1 5-2 10z"/>
  <path fill="#951700" d="M348 220q1 3 4 1l9-3q-3 5-11 9l-7 1q-3 1-6-2z"/>
  <path fill="#881400" d="m361 347-7 2v-6q2-6 7-12z"/>
  <path fill="#f66500" d="m210 397 1-8q4-5 10 0v6q-3 6-11 2"/>
  <path fill="#660e00" d="M353 353c6 1 5 5 5 10v1q-4 5-8 3c-2-1 1-4 1-7z"/>
  <path fill="#390600" d="m257 430 1-4q0-5 3-2 4 1 10-2l-2 8q-4 3-10 1z"/>
  <path fill="#f66500" d="m261 396-1-2 1-5q3-4 8-3 3 5 2 11-6 3-10-1"/>
  <path fill="#3d0d04" d="m224 430-12-1q-4-8 3-5h3c7-3 6 1 6 6"/>
  <path fill="#951700" d="m223 128 2 12q2 1-1 3l-7-17q0-2 3-2 4 1 3 4"/>
  <path fill="#881400" d="M127 346h-6l-1-15 5 7 1 3 1 3z"/>
  <path fill="#8b2e00" d="m203 407 2 2c0 3 2 7-2 8q-5-1-6-6v-3q3-3 6-1"/>
  <path fill="#660e00" d="m233 442 14 1q0 5-6 5-6 1-8-6"/>
  <path fill="#ed4800" d="m260 396 10 1 1 5h-10z"/>
  <path fill="#8b2e00" d="M284 409v3q-1 5-6 4-4-2-1-8 4-2 7 1"/>
  <path fill="#ed4800" d="m210 397 11-2v6q-5 2-10 0z"/>
  <path fill="#551809" d="M258 430h11l-1 5q-5 1-11-2v-2z"/>
  <path fill="#d64800" d="M190 405q-3-3-8-2l-1-6h7z"/>
  <path fill="#a13600" d="m284 409-6-1v-5q2-5 8-1z"/>
  <path fill="#d64800" d="M221 389h-10q0-6 6-6 4 0 4 6"/>
  <path fill="#8b2e00" d="M261 413q3-6 8-1-4 9-8 1"/>
  <path fill="#a13600" d="m204 407-7 1-1-6q3-3 7 0z"/>
  <path fill="#390600" d="M168 381q-6-1-9-7l-3-6q4-1 4 2z"/>
  <path fill="#d64800" d="M204 402h-8l-1-5h8zm82 0h-8v-6l8 1zm-17-16c-2 3-5 1-8 3h-1q0-4 3-6 5-1 6 3"/>
  <path fill="#a11b00" d="M337 226q4 2 7 0l6 1-12 4c2-2-3-2-1-5"/>
  <path fill="#8b2e00" d="M213 414q3-6 7 0-4 6-7 0"/>
  <path fill="#d64800" d="M210 401c4-2 7 1 11 0v2q-5 1-10-1z"/>
  <path fill="#a11b00" d="m332 254-1-3q-1-3 1-5l2 5v3z"/>
  <path fill="#3d0d04" d="M108 395q-5 2-10-1zm-18-1q-3 3-7-1z"/>
  <path fill="#a11b00" d="M322 307v6z"/>
  <path fill="#390600" d="m335 233-3 1q-3 3-6 0z"/>
  <path fill="#a13600" d="M260 389zl-1 5z"/>
  <path fill="#f55400" d="M297 55q-2 1-5-1z"/>
  <path fill="#2a0701" d="M368 401q-3 1-5-2zm-25-5h-4z"/>
  <path fill="#3d0d04" d="M257 152v-4h2l-1 4z"/>
  <path fill="#f55400" d="M199 51q0 3-3 1z"/>
  <path fill="#2a0701" d="M352 397h-3zm28 9q-1 0-3-2 2-1 3 2"/>
  <path fill="#710f00" d="m127 344-1-3q2 0 2 3z"/>
  <path fill="#b22100" d="M323 297q3 0 0 2z"/>
  <path fill="#f9d190" d="m268 297-2-2z"/>
  <path fill="#811200" d="M154 98q0-2 2-1zm16-1h2z"/>
  <path fill="#3d0d04" d="m72 393-2 2z"/>
  <path fill="#2a0701" d="M357 398q-1 2-2-1z"/>
  <path fill="#861400" d="m183 110-4-1z"/>
  <path fill="#f05000" d="M162 65h-2z"/>
  <path fill="#8b2e00" d="M277 386v2z"/>
  <path fill="#2a0701" d="M374 403q-2 2-2-1z"/>
  <path fill="#f05000" d="M166 64h-2z"/>
  <path fill="#2a0701" d="M361 399q-1 2-2-1z"/>
  <path fill="#881400" d="m302 109-3 1z"/>
  <path fill="#fc9329" d="M320 258zl-1-3z"/>
  <path fill="#f9d190" d="m269 299-1-1zm0 3v-2l1 2z"/>
  <path fill="#f55400" d="m304 58-2-1z"/>
  <path fill="#a13600" d="M284 412z"/>
  <path fill="#660e00" d="M258 430z"/>
  <path fill="#f55400" d="M284 51z"/>
  <path fill="#811200" d="M372 47zm-262 0z"/>
  <path fill="#060300" d="M257 151zl3 3q6-29 34-37 19-6 37 5l2 2-3 2c1 4 6 6 4 11q-2 1-5-1a39 39 0 0 0-25-9h-4c-15 2-26 15-29 30q-2 10 3 20 6 14 20 21l5 2h1q3 7 10 6 8 0 12-3t4-8v-1q5-4 9-9l5-10q4-12 0-24l-2-7q3-3 5-1 0-5-4-9-3-3-1-6 20 18 15 46-7 33-38 38-25 5-42-13c-5-5-5-5-8 1q-9 18-25 29h-1l-1-1q-13-10-22-25-1-5-4-7-5 0-7 5a48 48 0 0 1-69-5q-9-9-10-23-4-20 9-38 2 2 1 5-1 5 2 9 1 4-1 10l1 14 1 1 1 3q9 22 32 23 20 0 31-19 7-11 5-23l-1-7q-3-14-16-19l-8-4-15-2q-3-1-2-3 1-4-1-7c26-5 47 10 55 39q2-2 3-5c13-8 21-8 33 0"/>
  <path fill="#e36e0d" d="M127 174q6 18 20 30c21 14 47 10 63-9l3-4q9 21 26 38l-4-2q-12-8-19-22c-3-6-3-7-9-1q-13 15-34 15c-24-1-45-21-46-45m114 56q18-15 27-38 21 27 53 18 25-8 33-35c2 19-19 40-38 43q-26 5-43-16-4-5-6 1-8 17-26 27"/>
  <path fill="#1b0f0b" d="M139 150q-6 0-4-5l1-9q5-8 14-13 7-4 16-6 6 3 2 9l-3 3q-15 4-23 18 0 3-3 3"/>
  <path fill="#110905" d="M339 128q2 7 6 11l1 5q2 2 0 4l-4-2-2-2q-5-1-5-6-1-5-6-9-1-1-1-4 2-2 4 0h2z"/>
  <path fill="#a11b00" d="m168 235-1-2 1-4 17 1-12 7q-2-3-5-2m196-74q2 6 0 13zm-195 80 1-2zm1-2zm1-1z"/>
  <path fill="#e36e0d" d="m239 229 1 1z"/>
  <path fill="#da3400" d="M330 303q8-23 15-47v-6q4 1 4 4c3 11 7 22 4 34v4q9-10 11-22 1-12 1-25 4 9 7 18 2 24-3 47l-4 12q-1-9-5-19c-5 14-8 29-20 40-1-15 6-27 5-41q-7 6-16 12z"/>
  <path fill="#881400" d="M363 329z"/>
  <path fill="#da3400" d="M329 314"/>
  <path d="M334 320zm20 23z"/>
  <path fill="#da3400" d="m138 259 6 21 7 22q1 6 1 11-9-4-15-12 1 20 4 40c-12-10-14-24-20-38q-3 8-5 18-8-22-7-46 0-15 8-29v12a54 54 0 0 0 8 32h2l1-2a78 78 0 0 1 3-33q1-2 3-3 2 1 2 4z"/>
  <path fill="#710f00" d="m126 341-1-2z"/>
  <path fill="#781000" d="m326 233 6 1q-1 3-4 7-10-1-18-7v-1z"/>
  <path d="M375 173z"/>
  <path fill="#ea4100" d="M304 68c0 6 6 7 10 11q-2 4-6 4l-25 10-16 13q-7 3-13 2-7-1-14 1-13 3-24-6-1-3-5-2l-6-3q-14-10-31-15-3 0-5-4h9q3 1 5-2 2-6 7-3l4-1q15 5 27 15-4-13-15-23 8 1 13 4l8 6h2l1-3-3-9q10 7 15 18 4-8 7-15 2-2 3-2 2 1 1 4l-2 7 1 2 2-1 12-9 9-4c-5 9-13 17-16 28q20-17 45-23m-77-6q-1 0 0 0m27 0q-1 0 0 0"/>
  <path d="M150 233h-3z"/>
  <path fill="#a11b00" d="M153 229q-1 0 0 0"/>
  <path fill="#c42800" d="m169 79 24 9 18 12q2 0 5 3l10 16q2 2 0 6l-3 3-3-4q-4-10-12-16-20-16-45-21-18-3-35-13l1-6q10 4 21 7z"/>
  <path fill="#ea4100" d="M206 64q-1 0 0 0m71-1q0-1 0 0"/>
  <path fill="#c42800" d="M266 105c12-15 30-21 48-26q15-1 30-7 0 4-2 9l-5 2q-25 5-48 13-17 8-27 24h-4q0-10 8-15"/>
  <path fill="#d63500" d="m258 119 4 1-4 9q-3 1-4-2-2-5 4-8"/>
  <path fill="#da3400" d="m254 127 4 2-1 5q-3 1-5-3-2-3 2-4"/>
  <path fill="#e33c00" d="m254 127-2 4q-4 3-10 0l-8-2q-5 0-8-4-4-14-15-25 4-3 7 2 13 9 25 4h13q4 1 10-1l-8 14z"/>
  <path fill="#040302" d="M223 317zq-2-10 7-19 9-4 20 0l2 1 5 7 2 11q-3 8-8 12-6 3-14 2-11-2-14-13"/>
  <path fill="#881400" d="M120 348q1 0 0 0"/>
  <path fill="#f9d190" d="m252 298-2-1z"/>
  <path fill="#f69028" d="M205 183q-10 19-31 19a37 37 0 0 1-35-23v-3q-3-15 5-28 2-4 8-6 3 4 0 7-7 19 6 34c12 12 31 10 41-4q5-5 7-14-1-2 2-4 3 1 2 4 0 9-5 18"/>
  <path fill="#c12700" d="M246 158c9 2 17 13 17 24q-1 18-12 30c-10 15-10 15-21 0q-11-14-11-33c1-13 13-24 25-22l-2 2q-17 7-16 26l1 2q2 12 10 21 3 5 7 1 13-11 13-29-1-11-10-17-2-2-1-5"/>
  <path fill="#f95400" d="M225 188q-3-19 12-29 3-2 7-2h2q0 3 3 4 8 7 9 19l-7 16c-5 8-17 8-22-1z"/>
  <path fill="#f69028" d="M342 177q-3 12-13 18-7 1-12-4l2-6q15-11 11-28l1-6q2-2 5-2 8 5 7 15 1 6-1 13"/>
  <path fill="#e36e0d" d="M154 143q-8 4-11 11-4 10-4 22-6-12 0-25 9-19 29-25 8-1 16 1 3 3 1 5-4 3-7 2-10-1-18 6h-2l-1 1-1 1h-1zm189 34q0-9-3-20l-4-7q-6-6-13-12h-3q-9-5-18-4l-4-1q-1-4 3-4l5-3q17 0 29 12l4 6q10 17 4 33"/>
  <path fill="#ef8b25" d="M300 202q-18-4-26-22l-3-10q-1-4 2-6 4 3 4 7 6 15 20 19l12 1q2 3-1 5-3 4-8 6"/>
  <path fill="#ba5308" d="M274 164q-3 3-2 5l2 10c-9-19-1-46 26-52l4-1h2q0 4-4 4l-4 1q-1 4-5 4-15 7-17 24 1 2-2 5"/>
  <path fill="#f7a441" d="m300 202 9-9q3-5 8-4 6 3 11 6v1q0 3-3 4c-7 3-15 7-24 2z"/>
  <path fill="#1b0f0b" d="M301 202q14 2 27-6 3 6-3 9-8 6-19 4-5 0-5-7"/>
  <path fill="#ba5308" d="m184 132 1-4q18 5 24 23l-1 1q-3-1-4-3-5-11-17-14z"/>
  <path fill="#dd660a" d="m207 153 2-2q5 17-3 32l3-16-1-6q-3-3-1-8"/>
  <path fill="#e36e0d" d="M304 126q-1 3-3 1zm-165 51v2z"/>
  <path fill="#b22100" d="M345 300q0-1 0 0"/>
  <path fill="#fa5900" d="M222 90q1 0 0 0"/>
  <path fill="#050201" d="m207 152 1 9q-1 17-14 26c-19 13-44 1-46-22q-1-12 5-21v-1l1-1 2-2 1-1q10-9 27-7 17 3 23 20"/>
  <path fill="#ed4800" d="M225 188q4 2 5 6 11 12 20-1 3-6 8-13 1 12-6 22l-7 8q-5 7-9 0-9-9-11-22"/>
  <path fill="#fc9329" d="m234 180-1-8q1-5 6-7 5-1 8 3 2 3 0 8l-6 4q-3 2-7 0"/>
  <path fill="#f66500" d="m246 176 1-8q7 6 4 16-4 9-13 1 3-5 8-9"/>
  <path fill="#ef8b25" d="M246 176q-2 6-8 9-3-1-4-5c5 1 7-4 12-4"/>
  <path fill="#050201" d="m318 189-9 3c-20 4-35-13-35-28q-3-16 11-27 6-4 13-5 12-1 23 5h1q7 3 10 11v1l-1 2q7 22-13 38"/>
  <path fill="#ef8b25" d="m331 149-9-12q10 2 14 13l-4 1-1-1z"/>
  <path fill="#f69028" d="m156 140-2 2q0-2 2-2m1-1zm-3 3-1 1z"/>
  <path fill="#ef8b25" d="M322 137z"/>
  <path fill="#e23f00" d="M160 160q4 25 26 22l6-2q2-1 2 2c-14 13-36 7-41-13l2-6q1-3 5-3"/>
  <path fill="#efd499" d="M183 156q-2-4-1-7 2-6 8-5 6 2 5 8 0 5-6 6z"/>
  <path fill="#d63500" d="M160 160q-3 2-4 6 0 2-3 3-2-4-1-10 2-6 9-4z"/>
  <path fill="#811200" d="M165 140q7-5 16-4c1 4-3 1-5 4l-8 5q-5 0-3-5"/>
  <path fill="#a11b00" d="M165 140q0 2 2 5l-3 4-2 1q-3 4-6-2 3-6 9-8"/>
  <path fill="#b92200" d="m156 148 6 2q1 3-1 5-5 1-9 4 0-5 4-11"/>
  <path fill="#551809" d="M176 140c0-4 3-2 6-4l9 3z"/>
  <path fill="#d63500" d="m194 182-2-2 3-2 2 1z"/>
  <path fill="#3d0d04" d="m201 170 2-4q2 4-1 6z"/>
  <path fill="#a13600" d="m197 179-2-1 3-3 1 1z"/>
  <path fill="#710f00" d="M199 176zl2-3h1q0 3-2 4M201 170l1 2h-1z"/>
  <path fill="#b92200" d="m162 150 1-1z"/>
  <path fill="#e23f00" d="M303 189q-9 0-16-7 0-2 2-2c15 8 31-2 32-19 5-2 5 3 7 6a24 24 0 0 1-25 22"/>
  <path fill="#efd499" d="M303 154q-4 7-10 3-4-2-3-8 2-5 8-5 6 1 5 10"/>
  <path fill="#8e1500" d="m318 150-7-7q-2-2 0-5 9 2 14 11-2 4-7 1"/>
  <path fill="#660e00" d="M311 138v5q-9-5-20-4 8-5 18-2z"/>
  <path fill="#b22100" d="m318 150 7-1q2 2 3 6-1 7-8 1z"/>
  <path fill="#d63500" d="M320 156c3-1 5 5 8-1q2 5 1 12c-4-1-4-5-8-6z"/>
  <path fill="#c42800" d="m289 180-2 2-2-2v-3z"/>
  <path fill="#8b2e00" d="M285 176v4l-3-3q-2-2 1-3z"/>
  <path fill="#660e00" d="m283 174-1 2q-3-1-3-6 4 1 4 4"/>
  <path fill="#3d0d04" d="M278 166q2 0 1 2l-1 1z"/>
  <path fill="#b62200" d="M303 189h3z"/>
  <path fill="#8e1500" d="m311 138-2-1z"/>
  <path fill="#f69028" d="M331 149z"/>
<title>Title</title></svg>
