<svg xmlns="http://www.w3.org/2000/svg" xml:space="preserve" viewBox="0 0 480 480"><path d="M1 169C1 114 1.04 59.5.903 5 .894 1.575 1.576.903 5 .905q236 .165 472 0c3.424-.002 4.097.671 4.095 4.095q-.165 236 0 472c.002 3.424-.671 4.097-4.095 4.095q-236-.165-472 0c-3.424.002-4.1-.671-4.095-4.095C1.022 374.5 1 272 1 169"/><path fill="#FC9329" d="M319.17 255.931c-3.294-.6-5.032-3.152-7.15-5.041-7.463-6.658-16.213-9.38-26-9.383-29.757-.011-59.516.106-89.272-.06-14.514-.082-25.925 5.838-35.364 16.945-2.452-1.553-1.504-3.673-.857-5.681 1.282-3.979 3.545-7.44 6.142-11.11.6-.844 1.056-1.35 1.654-2.158.315-.438.441-.612.766-1.041.336-.42.474-.586 1.059-1.227.61-.624.772-.772 1.202-1.12.458-.315.65-.43 1.118-.744 2.281-1.804 4.337-3.325 6.605-3.967-3.47-.428-7.229-.278-11.292-1.03-13.115-3.767-24.95-8.836-34.581-18.602-18.62-18.88-22.008-48.6-11.732-70.94 3.304-7.184 6.296-14.817 14.288-19.053 4.79-.135 9.118-2.17 13.865-.235 1.38 3.041-.882 4.164-2.469 5.4-3.693 2.878-7.138 5.96-10.056 10.13-6.755 9.13-8.884 19.24-8.69 29.965.036 1.949.554 3.905.571 6.267-1.287 6.615.774 12.32 3.547 17.569 9.9 18.742 31.286 30.457 53.151 24.752 6.074-1.585 11.442-4.415 16.08-8.628 1.844-1.676 3.522-3.529 5.344-5.23 4.97-4.637 6.88-4.374 9.93 1.834 4.721 9.616 11.63 17.288 20.526 23.687.554.161.778.21 1.339.308.556.097.775.145 1.32.265.548.117.768.162 1.32.262 8.955-3.957 13.995-11.704 19.726-18.699 1.666-2.034 2.904-4.427 4.16-6.766 2.968-5.534 4.742-5.754 8.968-.842 3.073 3.572 6.632 6.539 10.61 8.968 18.972 11.587 43.375 6.755 58.085-11.442 5.62-6.954 10.407-14.242 9.162-24.21 1.53-9.868.745-19.082-2.485-28.228-2.203-6.238-5.406-11.628-10.512-16.307-2.321-1.25-3.923-2.845-5.983-4.47-.867-1.135-1.55-1.953-1.61-3.446 1.501-2.495 3.654-2.34 5.735-2.061 1.932.26 3.837.4 6.17.135 5.466 1.701 8.5 5.718 11.264 9.85 6.118 9.15 9.242 19.419 10.676 30.663-.015 4.005.007 7.6-.015 11.597-3.216 35.614-33.18 59.07-65.148 58.388-.666-.02-.198.828-.286.168-.023-.171.132-.19.45-.219 3.791-.342 5.995 2.316 8.527 4.422 4.707 3.913 8.03 8.811 10.36 14.405.77 1.846 1.31 3.805-.218 5.96"/><path fill="#B22100" d="M354.617 343.63c-2.922 3.353-5.166 6.418-7.561 9.36-2.096 2.574-4.387 4.977-7.167 6.86-6.462 4.38-10.612 2.729-12.03-4.844-1.161-6.204.337-12.207 1.778-18.129 1.289-5.296 3.17-10.449 4.823-16.042.04-.606.05-.834-.284-1.037-1.265.37-2.19.709-3.11 1.062-5.665 2.172-8.218.159-8.977-7.507-.15-2.15-.101-3.903-.006-5.984.154-2.142.275-3.958.613-6.09 2.852-2.298 5.022-.867 7.478.924 2.157 3.32 1.065 6.38.256 9.742-.284.593-.547.894-.526 1.184.04.563.152.561.236-.278 3.215-4.206 6.935-7.534 10.746-10.694 3.262-2.704 5.476-1.622 5.913 2.746.535 5.353-.682 10.588-1.74 15.79-1.061 5.21-2.123 10.417-2.89 15.68-.054.368.062.661.553 1.057 4.888-6.2 8.25-13.151 10.733-20.587 1.21-3.626 2.304-7.293 3.69-10.858.552-1.423 1.34-2.91 2.987-3.051 2.059-.175 2.758 1.657 3.334 3.171 1.238 3.257 2.387 6.565 2.127 10.195 2.938-13.126 5.37-26.282 5.404-39.778.011-4.314-1.556-8.543-.53-13.263 1.187-2.604.97-4.77.145-7.093-1.552-4.365-3.223-8.681-4.96-12.973-.953-2.353-1.669-4.699-.563-7.573 3.253-2.161 4.704.382 6.365 2.028 3.423 3.392 5.217 8.006 8.7 11.852 7.794 13.527 12.172 27.613 11.858 42.977-.013.667.052-.164-.01.498-.24 2.542.614 6.253-2.481 6.799-2.9.51-3.838-3.027-4.909-5.29-1.923 15.965-6.238 31.286-14.898 45.583-2.187 3.35-3.986 6.571-8.359 7.287-3.115-3.438-.195-7.39-1.503-10.967-1.596 1.734-2.385 3.95-3.938 6.088-.372.457-.528.635-1.297 1.155M158.365 303.665c.404 2.692.757 5.008.756 7.324-.006 9.944-2.26 11.695-12.295 9.122 1.591 5.441 3.206 10.573 4.58 15.768 1.524 5.77 3.03 11.602 2.489 17.635-.28 3.118-.766 6.708-3.945 8.14-3.3 1.488-6.374-.158-9.155-2.315-5.222-4.049-8.767-9.464-12.616-15.076-.759-.914-1.52-1.316-2.462-2.022a6.5 6.5 0 0 1-.877-.973c-.526-.84-.833-1.425-1.342-2.282-.625-1.318-1.204-2.285-1.679-3.261-.076 3.332.495 6.742-.812 10.367-.921 1.246-1.866 1.368-3.286.858-11.036-11.461-15.507-25.671-19.21-40.624-1.177-4.185-1.82-8.065-1.409-12.13-.744 1.164-1.298 2.395-2.351 3.245-2.372 1.912-4.732 1.407-5.21-1.617-.906-5.727-1.574-11.588 2.167-17.118 6.02.881 11.197-.059 15.514-4.349.395-.392 1.261-.046 2.146.444 1.267 1.457 1.545 2.943 1.533 4.443-.1 12.164 1.666 24.08 4.757 35.589.434-2.52 1.03-5.272 1.961-7.933.61-1.745 1.352-3.688 3.403-3.93 2.356-.28 2.82 1.986 3.508 3.578 1.915 4.427 3.235 9.075 4.808 13.63 2.027 5.868 4.947 11.231 9.326 16.595-1.98-9.622-2.958-18.743-4.03-27.852-.058-.494-.191-.982-.226-1.478-.186-2.624-1.097-5.912 1.666-7.263 2.939-1.437 4.679 1.597 6.39 3.52 1.984 2.232 3.827 4.58 7.002 5.72 1.08-2.414-.581-5.094 1.122-7.622 3.252-2.003 5.719-1.518 7.777 1.867"/><path fill="#B62200" d="M109.279 274.833c-3.397.788-5.522 3.081-6.575 5.496-1.445 3.316-2.346 4.176-4.678.912-1.047-1.465-2.841-1.61-4.76-2.2-3.096-2.632-1.762-5.586-1.027-8.397 2.84-10.866 7.954-20.653 14.612-30.132 4.189-6.372 9.192-7.644 16.083-5.066 15.049 5.629 30.014 3.463 45.186-1.814 2.4-.078 4.086.304 4.235 3.126-.142.436-.289.417-.282.343-.276.107-.527.325-.897.78-.149.2-.162.134-.13.14a6.4 6.4 0 0 0-.869.859c-.15.2-.154.131-.12.135-.489.389-.545.99-.867 1.783-3.206 5.625-7.193 10.566-8.074 17.391-1.766 4.772-4.563 8.649-5.674 13.758-5.19-4.887-4.08-11.681-6.927-17.863-1.572 5.597-.913 10.44-1.006 15.7-3.33 1.242-4.001-1.686-5.496-3.442-1.68-1.973-1.798-5.082-4.857-6.509-1.41-1.16-1.933-2.71-3.427-3.373-2.091 1.955-2.177 4.583-2.603 6.927-1.399 7.679-2.64 15.394-1.925 23.262.168 1.846.326 3.971-1.778 4.722-2.25.802-3.78-.863-4.931-2.537-4.35-6.331-6.214-13.584-7.174-21.041-.71-5.503-.627-11.076-.1-15.036-1.066 4.759-3.135 10.93-3.612 17.44-.121 1.655-.708 3.255-2.327 4.636"/><path fill="#B42101" d="M318.896 256.113c-2.214-12.224-10.005-19.99-21.293-25.902 35.922-2.59 59.541-19.015 66.062-55.904 1.55-4.394.556-8.566.477-12.987-2.11-8.714-3.83-17.153-7.99-24.832-2.955-5.456-6.593-10.364-11.64-14.567-.436-.394-.59-.607-.653-1.202 4.425-4.069 7.595-3.895 11.48.71 6.737 7.988 11.18 17.359 15.158 26.891 3.195 7.655 4.867 15.953 9.903 22.82.588.801.724 1.853.333 3.219-1.994.504-3.425-.442-5.698-1.339-1.006-.246-1.23-.355-1.736-.703-.709-.75-1.08-1.296-1.344-2.154-.024 7.64.57 15.128-2.176 22.644-3.628 11.846-10.56 20.825-20.625 27.917-3.114 2.53-6.783 3.471-9.73 6.133-.587 1.39-.198 2.714-1.19 3.995-.984.529-1.77.824-2.877 1.175-2.32 2.344-5.098 2.416-8.183 2.759-4.269.437-8.183-.089-12.313.295 4.439 2.333 9.2 2.793 14.054 4.24 3.192.034 6.077-1.02 9.113.944 2.88 5.472 2.452 7.736-2.085 11.349-1.835.736-2.76-1.617-4.537-.396-5.413-1.803-7.766.656-8.757 5.468-.159.772-.995 1.27-2.138 1.586-1.048-.41-.982-1.162-1.402-2.048-.264-.23-.174-.155-.213-.111"/><path fill="#F55400" d="M203.781 50.382c16.674-4.157 33.337-4.667 50.081-3.722 8.597.486 17.165 1.351 25.835 3.76 2.324 4.378 1.876 6.338-1.989 8.258-3.275 1.627-6.71 2.933-10.04 4.46-1.42.65-2.294 1.349-1.163 3.293-2.4 6.27-8.155 8.637-12.984 11.874-2.17 1.455-3.618-.617-3.998-2.881-.396-2.362.47-4.602 1.03-8.099-2.5 4.144-3.712 7.637-5.285 10.953-2.03 4.282-4.074 4.404-6.572.353-2.348-3.81-4.487-7.747-8.259-10.853.173 3.037 2.26 6.429-1.034 8.334-3.535 2.044-5.682-1.544-8.262-3.056-1.293-.758-2.355-1.864-2.494-3.855 1.102-1.857 3.17-2.905 1.595-5.387-1.857-2.928-3.877-5.393-7.704-5.298-1.643.04-3.236.661-4.906.542-5.19-.37-6.882-3.844-3.85-8.676"/><path fill="#861400" d="M368.157 340.403c9.956-20.984 13.047-31.26 15.21-51.818l6.22 11.19c.848-8.889.489-16.617-1.224-24.356-1.92-8.673-5.414-16.7-9.394-24.934-2.283-4.095-.837-8.768-3.61-12.588-3.431-4.728-6.514-9.593-12.138-12.619 2.58-4.492 5.283-4.054 8.407-.435 14.9 17.26 24.477 36.868 27.407 59.67 1.162 9.047 1.016 17.895-1.134 26.724a36 36 0 0 1-5.244 11.792c-1.005 1.478-1.987 3.927-3.799 3.447-2.162-.572-1.717-3.309-1.74-5.18-.042-3.173-.647-6.185-1.84-10.258-1.392 11.139-3.413 21.018-8.701 30.282-2.956.566-5.882 2.453-8.42-.917"/><path fill="#B42101" d="M136.062 122.518c-29.025 28.276-24.93 85.48 21.45 102.506 3.266 1.2 6.665 2.032 10.323 3.188 1.072 1.699 1.22 3.223-.163 5.054-5.208 2.811-10.467 1.482-15.99 1.83-1.245.005-2.036-.169-3.175-.495-1.59-.322-2.602-.849-3.294-2.37-.635-.306-1.077-.327-1.84-.429-1.45-1.35-.518-2.206.36-2.924 1.633-1.334.008-1.368-.962-1.972-4.717-3.942-10.356-5.679-14.852-9.503-7.402-6.297-12.903-13.662-16.165-23.157-1.907-8.933-2.25-17.583-1.23-26.288-.289 1.72-1.255 2.97-3.16 3.83-2.133.958-3.444 2.73-5.94 2.939-1.938-1.904-.552-3.492.383-4.902 3.67-5.54 6.152-11.636 8.683-18.12 2.984-9.792 7.348-18.532 12.663-26.801 3.53-5.492 5.843-6.175 12.412-3.7.428.493.554.727.497 1.314"/><path fill="#8E1500" d="M217.063 125.435c-10.968-15.654-26.397-23.575-44.657-27.716-.853-.361-1.32-.623-2.124-.737-4.63-.012-8.996 0-13.826.002-.932.023-1.388.105-2.158.372-5.312.993-10.336.45-15.806.427-2.687-1.945-5.474-3.465-4.71-7.384-1.012-3.18-4.559-2.744-6.59-5.079-1.481-4.259-2.566-8.312-2.79-12.858 1.492-1.412 2.652-.663 4.176.109 10.967 7.37 23.313 9.615 35.442 12.576 15.976 3.9 31.24 9.428 44.106 20.215 3.992 3.347 7.587 7 10.481 11.32 1.393 2.078 2.778 4.208 1.93 7.29-.964 1.199-1.934 1.55-3.474 1.463"/><path fill="#250501" d="M160.625 395.466c.627-.35.96-.383 1.292-.393 11.126-.31 12.646 1.197 12.594 12.275-.012 2.458-1.694 2.555-3.383 2.621-17.069.672-33.966 3.323-51.034 4.206-13.963.723-27.856 1.93-41.62-1.32-5.321-1.256-10.8-2.714-12.375-9.557 2.033-2.458 4.472-2.204 7.004-1.69 18.08 3.664 36.276 4.066 54.637 2.543 8.109-.673 16.241-1.162 24.361-1.786 4.693-.361 7.345-2.042 8.524-6.899"/><path fill="#B92200" d="M333.734 251.375c5.688-1.6 3.918-5.99 4.272-9.873.175-.713.33-1.128.593-1.197 8.843-2.297 17.662-4.71 27.078-5.54.163 5.734 2.776 10.433 4.379 15.414 1.28 3.977 3.992 7.706 2.13 12.54-3.62.056-3.587-2.932-4.522-5.074-.735-1.682-.737-3.569-.896-4.22 1.254 11.788-1.006 23.894-8.042 34.965-.626.984-1.333 1.919-2.26 2.643-2.583 2.016-4.297 1.433-4.986-1.692-.216-.983-.197-1.99-.055-2.98 1.68-11.76-1.792-22.642-5.975-33.595-3.714 1.096-3.72 4.574-5.089 7.15-1.775 3.339-1.833 7.797-6.498 9.295-.271-4.74-.232-9.328-.132-14.353-.369-1.289-.6-2.165.003-3.483"/><path fill="#FA5900" d="M203.666 50.141c-.893 6.965.424 8.178 7.335 6.414 4.937-1.26 12.874 4.803 12.727 9.825-.075 2.55-2.129 2.532-4.363 2.63-2.994 2.018-5.02-.31-7.147-.85 3.783 4.805 7.647 9.717 10.063 15.554.761 1.84 1.608 3.98-.407 5.458-1.833 1.346-3.51-.048-4.89-1.206-6.946-5.831-15.043-9.66-23.477-13.642-7.14-3.518-14.431-5.448-21.747-7.292-1.753-.442-3.543-.715-5.337-2.074-.4-.505-.521-.736-.523-1.342 9.326-5.484 19.129-9.037 29.731-11.543 1.22-.075 2.056-.059 3.103-.563 1.527-1.161 3.081-1.132 4.932-1.369"/><path fill="#881400" d="M380.799 174.813c-9.186-10.877-10.285-25.245-17.26-36.935-2.88-4.827-5.545-9.764-8.785-14.383-2.644-3.77-5.595-5.532-10.278-2.724-2.418.432-4.16-.378-5.906-1.471-9.081-5.685-18.893-8.794-29.72-8.298-2.143.098-4.345.15-6.48-1.559 6.771-3.451 14.19-3.987 21.66-3.005 8.495 1.117 16.912 1.815 25.02-1.625 2.512-1.066 3.71.209 5.067 1.702 9.258 10.19 14.935 22.291 18.728 35.366 1.757 6.056 3.235 12.194 5 18.248 1.124 3.857 3.146 7.296 5.558 10.517.72.962 2.645 1.525 1.706 3.17-.861 1.51-2.526 1.332-4.31.997"/><path fill="#FA5900" d="M266.257 67.254c-.822-.547-1.359-.934-1.957-1.146-.989-.35-2.651.2-2.645-1.46.005-1.281 1.413-1.694 2.45-2.14 3.913-1.68 7.754-3.601 11.797-4.873 3.324-1.045 4.495-2.93 4.098-6.596.877-.324 1.752-.21 2.901.105.52.432-.014 1.478 1.088.631 2.47.282 4.857.831 7.623 1.53 1.754.842 3.188 1.376 5.005 1.811 1.849.536 3.375 1.006 5.137 1.727.73.646 1.356.648 2.2.943 4.312.982 7.878 2.994 11.81 4.971.477 2.866-1.609 3.371-3.374 4.035-2.28.858-4.684 1.344-7.349 2.21-14.773 4.898-28.438 11.135-40.39 20.737-1.506 1.21-3.386 2.863-5.347 1.448-2.26-1.63-.83-3.969-.132-5.914 2.517-7.016 7.22-12.621 12.08-18.244-1.636.288-3.108 1.311-4.995.225"/><path fill="#2A0701" d="M386.586 409.322c5.916 1.407 10.275 4.94 14.174 9.083 1.205 1.28 2.858 2.975 1.54 4.786-1.207 1.66-3.142.384-4.604-.188-10.392-4.063-20.86-7.871-31.795-10.241-11.529-2.5-23.097-4.413-34.95-4.953-6.798-.31-13.593-.842-20.407-.803-2.363.014-3.022-.671-2.768-3.255.851-8.671.729-8.725 9.435-8.727 3.664 0 7.329.06 11.467.155.544 2.458.877 3.717 4.156 3.992 13.985 1.173 28.019 2.164 41.752 5.439 4.215 1.005 7.121 4.923 12 4.712"/><path fill="#8E1500" d="M108.193 240.759c.005 2.43-1.39 3.67-2.42 5.16-6.737 9.75-11.294 20.389-12.848 32.643-2.818 5.704-1.77 11.417-1.834 16.997-.007.555.374 1.376.821 1.618.941.51 1.54-.332 1.912-1.04 1.423-2.705 2.77-5.45 4.827-9.534.62 7.17-.103 12.964 1.364 18.964-5.002 5.17-10.62 3.403-16.483 1.683-2.539-8.976-1.692-17.741-.333-26.39 2.684-17.088 9.01-32.816 18.868-47.072.553-.8 1.394-1.399 2.397-2.288 3.68 1.956 3.855 5.365 3.73 9.259"/><path fill="#861400" d="M136.45 122.101c-7.335-2.465-10.57 1.251-13.706 6.908-4.014 7.24-7.311 14.738-10.625 22.663-1.55 1.822-3 3.137-5.549 1.634 2.692-15.631 7.907-30.045 17.177-42.82 2.956-4.073 5.487-6.85 11.643-4.585 7.693 2.83 16.119 1.683 24.212.682 6.231-.771 12.227-.148 18.417 1.982-1.113 2.505-3.396 2.503-5.515 2.407-10.912-.495-20.58 3.182-29.705 8.69-1.882 1.137-3.845 1.948-6.349 2.44"/><path fill="#951700" d="M322.3 96.596c-19.188-.196-35.37 6.217-49.073 19.158-6.707 6.334-10.737 14.226-14.089 22.977-4.512 1.853-4.337-.87-3.98-4.085.194-2.017.29-3.633 1.172-5.48 1.441-3.378 2.162-6.652 4.366-9.685 6.006-11.755 15.017-19.679 26.703-24.763 11.806-5.137 24.308-7.848 36.782-10.595 4.12-.907 8.112-3.256 12.93-1.617 2.137 5.195.904 8.428-3.69 10.156-3.558 1.338-7.316 2.112-11.122 3.934"/><path fill="#3D0D04" d="M160.46 395.11c.609 1.178.562 2.395.94 3.462 1.247 3.504-.312 5.006-3.602 5.37-20.743 2.297-41.554 3.88-62.41 2.892-9.519-.451-18.961-2.527-28.856-3.885-.49-3.052-1.136-6.3 2.887-8.022 5.554 2.418 11.203 2.778 16.793 2.92 11.605.293 23.22.146 34.829.053 5.777-.047 11.545 1.137 16.74.006-2.499-1.445-7.119 3.502-9.003-2.553 10.547-.31 20.884-.291 31.682-.243"/><path fill="#DD660A" d="M302.103 109.114c12.463-.86 24.468.541 35.388 7.184 2.113 1.286 4.076 2.82 6.39 4.433.28.192.3.602.326.805-3.747 2.578-7.773-.002-11.943 1.005-3.256 1.157-5.801-.371-8.31-1.333-19.379-7.431-39.806-.75-52.802 15.155-3.756 4.598-5.238 10.314-7.364 15.722-1.688 4.294-3.62 4.46-6.607.553.023-1.749.45-2.985 1.541-4.375 5.928-20.617 20.248-31.894 39.927-38.05.998-.994 1.994-.595 3.125-.941.296-.162.322-.17.33-.158M136 122.256c12.141-9.805 25.805-14.416 41.79-13.297.483-.1.781-.038.93-.004 1.23.93 2.558.348 4.002.902 20.152 6.571 34.92 18.082 40.157 39.765.806.941 1.993.544 2.518 1.92-.43 2.858-1.658 5.03-4.385 4.889-2.712-.14-2.906-2.933-3.463-4.921-5.906-21.062-23.054-33.18-44.937-33.558-1.881-.033-3.624.237-5.735.897-5.925.616-10.654 4.259-16.573 4.075-4.688-1.344-9.065.845-13.963-.045-.462-.007-.39-.42-.341-.623"/><path fill="#D63500" d="M224.77 151.331c-.944-.292-1.762.04-1.887-1.175 2.17-1.99.744-4.263.833-6.745 1.072-3.349-.25-6.062-.97-8.769-.54-2.028-1.35-3.965-1.047-6.506.643-2.026 1.792-3.069 3.787-3.714 6.373 2.764 13.335 2.407 19.21 5.622 2.11 1.154 4.211.122 6.68.12 2.292.612 3.655 1.982 5.29 3.577.668 1.915-2.238 4.437 1.887 5.24-.086 2.747-.517 5.48-.972 8.638.346 1.454.47 2.471-.479 3.69-2.276.905-3.827-.104-5.382-1.034-7.146-4.275-14.355-4.103-21.635-.36-1.592.817-3.078 1.982-5.316 1.416"/><path fill="#F9D190" d="M212.095 300.175c5.827-18.846 33.159-25.947 47.095-12.523 2.118 2.04 5.25 2.872 6.772 6.02-1.3 1.598-2.69.881-4.087.39-4.585-1.612-8.351-.351-11.758 3.476-1.789.787-3.34.732-4.737.232-4.855-1.738-9.534.218-14.674.429-3.58-1.945-6.69-.807-9.86.102-2.788.8-5.3 2.763-8.751 1.874"/><path fill="#811200" d="M108.359 240.979c-2.349-2.441-2.82-5.64-3.534-9.226.526-1.437 1.008-2.511 1.723-3.399 5.419-6.726 5.296-6.46 12.621-2.493 7.866 4.26 16.093 7.725 25.634 6.432 1.178-.948 1.363.113 2.063.579.888.858 1.77.588 2.864.343 5.612-.208 10.973-.209 16.801-.214 1.522-.184 1.82.444 1.658 1.646-14.817 7.31-29.943 8.032-45.089 2.979-5.99-1.999-10.612-2.417-14.741 3.353"/><path fill="#861400" d="M322.367 96.99c.421-5.333 5.266-4.873 8.444-5.49 4.803-.93 6.389-3.27 6.198-8.063.428-2.52 2.164-3.134 4.242-3.858 3.754-1.017 6.29-4.06 10.453-3.958 3.244 1.08 6.065 1.72 9.019.082 1.147-.637 2.592-.783 3.427 1.028-4.946 5.483-10.03 10.303-18.036 12.835 7.882 1.198 14.094-.534 20.32-2.825-5.329 6.698-11.93 11.24-20.521 12.134-7.79.81-15.539.123-23.546-1.885"/><path fill="#811200" d="M83.196 307.367c5.337-1.406 10.786.4 16.418-1.37 3.255 9.278 5.887 18.617 10.406 27.317 2.224 4.282 5.249 7.974 7.878 12.354-2.172 2.968-5.342 2.718-8.806 2.683-8.063-10.836-11.612-22.924-12.47-36.738-2.5 5.207-2.19 10.223-3.086 16.09-6.49-5.834-9.222-12.463-10.34-20.336"/><path fill="#F7B04B" d="M265.09 331.653c-9.576 14.003-29.311 16.508-44.046 5.707.346-5.22 4.484-5.408 7.912-6.125 2.444-.511 4.92-.692 7.452-2.236 5.078-.253 9.592-1.435 14.52-2.58 5.45.237 10.86-.587 14.162 5.234"/><path fill="#811200" d="M366.292 235.194c-9.068 3.042-17.94 5.759-27.84 5.855-3.48-.01-6.516-.043-10.006-.103-2.086-3.42 1.494-4.42 2.814-6.824 1.07-.84 1.954-1.14 3.314-.852 10.214-.152 19.204-3.383 28.11-8.118 3.822-.69 6.435.784 8.407 3.549a578 578 0 0 1 7.33 10.508c2.191 3.221 1.056 6.676.55 10.494-4.9-3.871-7.088-10.416-12.68-14.51"/><path fill="#ED4800" d="M165.713 63.94c9.903 1.53 19.084 4.287 28.037 8.816.528 2.168-1.079 2.735-2.206 2.584-4.115-.553-6.736 1.378-9.165 4.362-1.172 1.44-3.106 1.57-5.078 1.14-2.587-.565-5.255-.655-8.297-.178-6.796-.274-13.188-.729-19.197-4.375-1.6-4.598.764-7.1 4.064-8.983 1.383-.789 3.012-1.16 4.8-2.099.476-.315.622-.397 1.012-.426.768.144 1.288.162 2.054-.069.675-.3 1.103-.515 1.891-.731.821.004 1.28-.002 2.085-.041M303.804 68.334c3.405-3.466 8.3-2.227 11.968-5.073 6.387 2.409 12.837 1.871 19.72 1.599 4.671-.215 7.783 1.258 9.11 5.98-.012.683-.065.955-.329 1.585-6.23 5.445-13.945 5.605-21.067 7.398-2.655.669-5.492 1.344-8.722.413-1.985-1.619-4.118-2.064-5.965-3.052-3.336-1.785-6-4.087-4.715-8.85"/><path fill="#A11B00" d="M333.375 269.334c4.656-4.95 4.794-11.781 8.427-16.869.766-1.072.632-3.105 3.02-2.602 2.077 2.844 2.044 5.69 1.372 8.74-3.039 13.795-8.175 26.93-12.554 40.303-.518 1.581-1.308 3.06-3.306 3.976-2.833.521-4.36-1.928-7.046-1.895-.346-.477-.316-.93-.167-1.704.37-.707.51-1.127.412-1.909 1.466-10.067 6.639-18.534 9.842-28.04"/><path fill="#551809" d="M128.52 395.01c1.344 2.742 3.665 1.822 5.516 1.96 4.326.32 8.744-.578 13.042 1.25-5.96.8-11.96 1.466-17.886 1.633-14.791.418-29.603.222-44.405.088-3.623-.033-7.26-.648-10.85-1.24-1.731-.286-3.727-.685-4.082-3.47-.087-.39-.028-.404.002-.4.605-.383 1.132-.834 1.917-1.516 3.599-.226 6.936-.226 10.726-.198 2.425 1.513 4.708.647 7.176.873 2.688.02 5.045.044 7.843.098 3.413 1.73 6.656.56 10.122.9 7.048-.001 13.73.003 20.88.022"/><path fill="#F05000" d="M158.54 64.947c-.466 1.636-1.604 3.252-3.375 3.743-3.044.844-4.032 3.154-5.03 6.043-1.884 2.323-4.063 1.765-6.038 1.063-4.92-1.75-9.91-3.367-14.784-6.216-8.933-5.284-16.64-11.206-19.463-21.903-.148-.595-.204-.835.017-1.317 1.53-2.145 1.652-2.212 2.033-1.517 10.218 18.614 27.855 20.13 46.64 20.104"/><path fill="#881400" d="M112.733 193.715c2.815 3.596 3.658 7.78 6.134 11.214 5.36 7.436 12.006 13.267 20.062 17.564 1.441.768 3.168 1.169 4.083 3.165-1.887 2.716-4.29 1.75-6.627 1.13-3.253-.864-6.23-2.627-10.012-2.886-9.952-5.894-15.614-14.785-19.179-25.613.599-3.163 1.206-5.975 5.539-4.574"/><path fill="#A11B00" d="M137.622 259.241c4.02.252 3.99 4.105 5.975 6.186 1.248 1.308 2.18 2.92 3.57 4.613 5.27 10.807 9.793 21.542 11.477 33.611-2.252-.532-4.222-2.178-7.232-1.66-2.931-.598-3.52-2.779-4.18-4.82-3.32-10.278-6.485-20.604-9.747-30.9-.7-2.206-1.494-4.467.137-7.03"/><path fill="#710F00" d="M108.771 348.551c2.371-2.541 5.335-2.776 8.843-2.566 1.006.12 1.584.247 2.338.227 2.054-2.092 4.12-2.369 6.778-.544 2.262 6.307 3.473 12.434 4.418 18.663.63 4.154-1 4.065-3.57 2.568-7.677-4.476-14.436-9.978-18.807-18.348"/><path fill="#F7B75B" d="M236.913 329.978c-2.406 1.987-5.06 2.934-8.122 3.196-2.729.232-5.478 1.089-7.642 3.671-6.029-3.367-8.78-9.057-11.002-15.474 1.786-4.843 4.19-6.068 11.116-5.778 1.942.325 3.203 1.205 3.875 2.517 2.633 5.144 7.088 8.378 11.775 11.868"/><path fill="#551809" d="M386.539 409.054c-1.126 3.634-3.52 1.167-4.951.457-8.639-4.286-17.77-5.539-27.296-6.123-8.897-.546-17.718-2.39-26.675-2.797-.999-.046-2.368-.237-2.894-1.588.59-2.12 3.278-1.474 4.291-3.469 3.067-.293 5.996-.293 9.364-.272 1.53.743 2.776.744 4.318.842 1.971.063 3.636.088 5.715.131 1.189.49 2.018.79 3.26.877 1.04.06 1.75.07 2.815.09.884.27 1.358.641 2.226.858.704.071 1.116.088 1.839.112.823.295 1.293.664 2.162.876.705.068 1.12.086 1.845.112 1.65.96 3.144 1.538 5.1 1.852 1.445.28 2.545.534 3.956.929.767.51 1.227.872 2.098 1.072 1.075.297 1.86.554 2.929.941 1.045.819 1.964 1.234 3.155 1.783 2.824.161 4.018 2.88 6.743 3.317"/><path fill="#781000" d="M367.784 340.235c2.643 1.948 5.655-.994 8.345 1.067-3.287 9.446-9.391 16.461-17.759 22.049-3.302-2.41-2.02-7.155-5.335-9.99.05-1.534.176-2.695.5-4.145 2.17-1.753 3.766-4.234 7.18-2.5 3.023-1.414 4.945-3.818 7.07-6.48"/><path fill="#861400" d="M347.89 220.384c8.827-7.563 16.028-15.888 20.057-27.022 6.198-.892 4.188 3.887 4.987 7.316-1.708 7.147-5.606 12.607-11.055 17.33-3.298 1.11-5.357 3.851-8.582 4.514-2.21.453-4.327.995-5.407-2.138"/><path fill="#300500" d="M324.72 381.713c-4 3.243-7.478 6.606-12.042 8.446-1.669.673-3.322 1.242-4.246-.805-.696-1.542-1.89-3.29.331-4.823 5.417-3.738 9.477-8.685 12.669-14.41 3.312-5.94 6.206-.104 8.742.833 3.397 1.255-.094 3.097-.87 4.452-1.228 2.142-2.867 4.049-4.583 6.307"/><path fill="#B92200" d="M343.737 72.349c.28-.312.381-.748.417-.968.441-1.655 1.62-2.343 2.82-2.89 10.597-4.832 18.8-12.21 24.554-22.523.35.071.417-.116.513-.09.197.195.297.365.366.83.082 1.972.197 3.65.25 5.745-2.67 11.804-10.127 19.09-20.509 24.309-3.828.415-6.11 3.469-9.805 4.15-2.912-3.26-.507-5.687 1.394-8.563"/><path fill="#811200" d="M124.98 71.725c.834 4.408 4.885 7.89 2.057 12.958-11.836-7.16-18.508-17.541-17.87-32.344 1.249-1.132 2.136-.639 2.56.328 2.83 6.441 7.5 11.49 12.263 16.482.57.597.869 1.383.99 2.576"/><path fill="#FACD84" d="M211.51 300.173c3.978-1.687 7.618-3.302 11.38-4.551 2.27-.755 4.802-1.596 6.99 1.065.32 1.188.41 2.114-.098 2.757-3.765 4.77-5.434 10.424-7.23 16.395-2.06.806-2.46-.589-3.034-1.74-.658-1.318-.335-3.605-2.861-3.122-2.154.412-4.117 1.201-4.578 3.73-.266 1.454-.537 2.893-1.883 4.229-2.345-6.21-1.203-12.411 1.314-18.763"/><path fill="#F05000" d="M371.85 45.749c-4.575 13.362-14.496 20.705-27.303 25.366-2.894-1.936-4.275-5.466-8.347-5.975 7.088-1.518 14.446-2.678 21.05-6.505 4.96-2.872 9.134-6.452 11.9-11.593.408-.76.371-3.531 2.7-1.293"/><path fill="#300500" d="M167.815 380.778c2.314 2.442 7.496 2.415 5.343 7.713-.83 2.042-1.525 2.568-3.576 1.812-8.704-3.209-14.152-10.128-19.623-17.024-1.118-1.41-.047-1.919 1.153-2.475 1.49-.692 2.87-1.626 4.596-2.62 3.054.911 3.905 3.608 5.24 5.825 1.667 2.767 3.639 5.128 6.867 6.77"/><path fill="#3D0D04" d="M227.418 406.31c-.366-2.722-.369-5.097-.334-7.916.757-1.171 1.638-1.756 2.64-1.7 6.905.388 13.824-.032 20.726.373 1.004.059 1.898.51 3.002 1.515.385 2.386.433 4.433.468 6.92-.465.918-.915 1.623-1.491 1.704-8.24 1.163-16.489 2.08-25.011-.896"/><path fill="#FCC572" d="M269.786 301.718c3.127 5.034 2.094 10.29 2.015 15.86-4.476 2.822-8.84 2.19-13.493.242-1.587-4.104-2.259-7.982-2.029-12.392 3.103-4.149 7.581-3.57 11.988-4.327.666.166.92.276 1.52.617"/><path fill="#F7B75B" d="M258.246 316.51c4.198 2.361 8.725-.564 13.017 1.492-.459 5.068-2.184 9.738-5.823 13.883-4.275-3.078-9.144-3.492-14.435-4.029.577-4.71 3.915-7.865 7.24-11.346"/><path fill="#B62200" d="M319.788 258.207c2.478-2.266 2.246-5.27 3.117-7.846.462-1.365.355-3.202 1.952-3.661 1.772-.51 2.402 1.277 3.217 2.433.582.826 1.227 1.513 2.586 1.808 1.254.57 1.49 1.399 1.36 2.707-.93 4.494-1.668 8.687-2.724 12.798-.514 2.004-1.407 4.009-3.553 5.14-1.837-4.102-3.625-8.096-5.57-12.424-.316-.475-.476-.616-.385-.955"/><path fill="#811200" d="M352.147 77.074c2.93-3.179 6.139-6.23 9.477-9.134 4.697-4.083 7.631-9.365 10.68-14.93 1.294 9.034-1.789 16.844-7.963 23.893-1.16-.754-2.04-.582-2.878.197-2.95 2.74-5.942 2.468-9.316-.026"/><path fill="#951700" d="M113.058 193.506c-2.655.289-4.2 1.875-5.655 4.187-4.054-8.17-1.682-16.576-.322-25.41 1.585-3.756 3.227-7.085 4.868-10.413-.567 10.56-.048 20.886 1.109 31.636M373.275 200.718c-2.498-1.814-1.484-5.83-4.926-7.626 2.695-9.506 1.28-19.304 1.828-30.125 2.288 3.122 3.25 5.564 3.807 8.583.234.62.46.874.874 1.3.197.161.142.169.146.142-.662 1.948-.095 3.891.334 5.773 1.69 7.425.609 14.574-2.063 21.953"/><path fill="#FACD84" d="M269.223 301.662c-3.628 2.373-7.656 1.987-11.65 3.265-3.256-.228-4.188-2.852-6.098-4.809-.46-.594-.697-.948-1.068-1.585-.22-.468-.287-.663-.379-1.168.703-4.924 8.03-7.905 12.373-5.34.99.584 1.942 1.233 3.271 1.916.36.065.556.132.544.235.035 1.074.75 1.656 1.517 2.58.227.243.5.406.452.558.079.867.296 1.558.857 2.383.336.136.207.144.219.081.152.464.21 1-.038 1.884"/><path fill="#660E00" d="M223.654 429.657c1.605 3.756 1.743 7.435 3.001 10.908 1.17 3.228-.914 4.827-4.503 3.99-7.886-1.839-9.1-8.308-10.35-15.2 3.913-3.803 7.72-2.373 11.852.302"/><path fill="#551809" d="M253.838 398.51c-8.67.186-17.339 1.413-26.309-.522-1.17-4.026.566-5.291 4.462-5.101 5.594.272 11.215.253 16.814.053 3.839-.137 5.625 1.232 5.033 5.57"/><path fill="#781000" d="M233.53 442.28c-.625-3.345-.932-6.366-1.169-9.794 4.859-4.036 9.911-3.003 15.322-.869.284 3.732.25 7.08.146 10.88-4.765 2.714-9.387 2.039-14.298-.218"/><path fill="#390600" d="M274.033 434.901c1.063-2.643 2.047-4.924 2.855-7.265 1.505-4.36 8.848-6.916 12.727-4.421 1.25.803.722 1.562.24 2.466-3.08 5.766-7.516 9.974-13.713 12.288-3.624 1.352-3.283-.353-2.11-3.068M204.118 426.892c1.611 3.96 3.1 7.562 4.922 11.966-9.557-1.972-14.496-7.84-18.792-15.436 5.5-.855 10.367-2.137 13.87 3.47"/><path fill="#F66500" d="M292.585 401.206c-.669-4.679.075-9.175-.971-13.587-.42-1.768-.901-3.801 1.577-4.504 2.277-.646 3.786.623 4.85 2.508 2.578 4.566 2.51 9.488 1.865 14.865-2.332 1.339-4.68 1.572-7.32.718"/><path fill="#250501" d="M227.04 406.39c8.66-.421 17.305-.415 26.408-.43.919 3.553-.535 5.162-4.247 5.072a390 390 0 0 0-18.32-.002c-3.123.07-4.157-1.356-3.84-4.64"/><path fill="#A13600" d="M292.115 401.265c2.588-.352 4.742-3.366 7.502-.569.557 4.807-.815 8.99-3.33 12.783-1.152 1.737-2.929 2.942-5.086 1.972-2.096-.943-1.733-2.832-1.273-4.716.74-3.033 1.304-6.11 2.187-9.47"/><path fill="#B92200" d="M125.245 72.213c-7.13-5.381-12.264-11.938-15.627-20.19-.243-1.44-.176-2.754-.002-4.45.171-.616.235-.852.58-.854 3.652 9.42 10.513 15.508 18.65 20.907 1.737 2.232 1.765 4.151-.462 6.194-1.224-.35-2.046-.916-3.14-1.607"/><path fill="#F66500" d="M195.521 397.312c-.635-3.494-.653-6.644.098-9.728.758-3.115 2.71-5.04 6.047-4.48 3.364.566 2.484 3.176 2.277 5.504-.219 2.467-.104 4.963-.214 7.887-2.46 3.031-5.09 2.935-8.208.817"/><path fill="#8E1500" d="M106.152 153.377c1.774-.662 3.432-.962 5.449-1.323-1.596 8.095-5.717 15.194-10.459 22.339-1.84.688-3.92 1.215-4.893-.733-.786-1.572 1.097-2.524 1.976-3.618 3.878-4.83 6.039-10.47 7.927-16.665"/><path fill="#390600" d="M232.585 426.482c-.816-7.52-.816-7.521 6.228-7.51 1.318.002 2.66.173 3.95-.012 5.031-.723 7.119 1.264 6 6.768-5.206 3.577-10.495 2.888-16.178.754"/><path fill="#F66500" d="M278.347 396.319c-.597-2.723-.866-5.129-1.157-7.933-.085-.837-.117-1.278-.078-2.051.5-3.129 2.459-3.685 4.79-3.23 2.307.45 3.822 2.026 4.05 4.374.284 2.931.262 5.892.276 9.21-2.703 2.377-5.18 2.09-7.881-.37"/><path fill="#811200" d="M133.591 90.056c.606 3.022 4.335 3.951 4.418 7.322-8.873.072-16.331-3.305-22.367-9.872 5.852 1.116 11.651 2.049 17.95 2.55"/><path fill="#F66500" d="M181.598 397.3c-1.23-4.655.07-8.482 2.217-12.116 1.043-1.763 2.638-2.617 4.607-1.995 2.062.652 1.809 2.323 1.533 4.093-.456 2.935-.64 5.912-1.04 9.27-2.2 2.596-4.508 2.75-7.317.748"/><path fill="#660E00" d="M267.599 434.697c-.823 4.698-2.877 8.194-7.692 9.505-4.216 1.147-6.114-.332-5.246-4.549.431-2.097 1.118-4.142 1.912-6.5 4.045-1.985 7.39-.433 11.026 1.544"/><path fill="#A11B00" d="M126.226 224.246c.756-3.318 2.808-1.834 4.652-1.444 3.868.82 7.199 3.552 11.816 3.19 2.614-.103 4.667.314 6.702 1.74-1.423 2.367-4.81 1.1-6.236 3.675-6.13-.974-11.674-3.357-16.934-7.16"/><path fill="#A13600" d="M189.423 404.66c1.703 2.473 1.886 4.995 2.257 7.433.204 1.338.025 2.756-1.477 3.384-1.392.582-2.59.036-3.636-.938-3.131-2.915-4.034-6.77-4.51-11.191 3.452-3.61 4.652-3.382 7.366 1.311"/><path fill="#660E00" d="M232.195 426.561c5.236-.44 10.432-.462 16.06-.435.628 1.787.673 3.515-.105 5.533-5.055.353-9.96.364-15.293.398-.519-1.678-.611-3.377-.662-5.496"/><path fill="#FCC572" d="M209.894 319.464c-.196-4.934-.27-9.141 5.772-10.652 4.02-1.004 5.671-.448 5.384 3.872-.061.913.474 1.865 1.049 3.058.313.258.562.64.587.867-4.28.507-8.552.904-12.273 4.157-.353-.171-.452-.58-.519-1.302"/><path fill="#A13600" d="M220.89 402.552c1.33 3.904-.076 7.351-.58 11.192-2.492.883-4.599-1.054-7.242-.09-2.766-3.22-2.505-7.115-2.934-11.253 3.546-1.152 7.032-1.31 10.756.15M261.14 413.266c-1.409-3.544-.891-7.051-.845-10.966 3.235-3.194 6.526-2.895 10.26-.675.846 3.791.375 7.142-1.062 10.745-2.926-.442-5.498.146-8.352.896"/><path fill="#951700" d="M347.626 220.037c1.301 1.82 2.624 1.709 4.409 1.007 2.844-1.12 5.518-2.8 9.112-2.974-2.11 4.31-6.56 6.148-10.905 8.64-2.593.229-4.882.491-6.993 1.247-2.424.869-4.416.52-6.26-1.515 3.458-2.394 6.877-4.367 10.637-6.405"/><path fill="#881400" d="M361.075 346.543c-2.504.041-4.123 2.546-6.943 2.392-.268-1.385-.138-2.763-.068-4.552-.06-.411-.061-.358-.088-.363.124-.16.275-.313.233-.725 1.228-4.52 3.944-7.96 7.198-12.605.965 6.001.78 10.717-.332 15.853"/><path fill="#F66500" d="M210.476 397.33c-.683-2.778-.381-5.191.528-7.94 3.06-3.374 6.173-4.078 9.88-.726.453 2.043.562 3.803.532 5.922-2.877 4.223-6.478 4.716-10.94 2.745"/><path fill="#660E00" d="M352.732 353.303c6.015.698 5.407 5.106 5.316 9.736-.091.616-.178.763-.301.868-2.257 1.918-5.181 4.804-7.54 3.489-1.987-1.107.872-4.537 1.188-7.02.288-2.263.735-4.507 1.337-7.073"/><path fill="#390600" d="M257.44 430.382c-.177-1.766.019-3.215.148-4.67.227-2.551 1.14-3.345 3.78-2.187 2.956 1.295 6.007.43 9.158-1.579.198 3.126-.54 5.249-1.324 7.715-3.004 3.118-6.393 2.566-10.23 1.742-.685-.35-.938-.529-1.532-1.021"/><path fill="#F66500" d="M260.698 396.305c-.356-.786-.449-1.22-.534-1.989-.155-1.942-.376-3.552.56-5.45 2.171-2.915 4.89-3.024 8.166-2.648 2.42 3.071 2.2 6.51 2.042 10.36-3.453 2.682-6.726 1.792-10.234-.273"/><path fill="#3D0D04" d="M224.033 429.57c-3.801.087-7.578-.244-11.819-.598-2.383-5.93-2.386-5.912 3.147-5.16.976.133 2.144.393 2.947.012 6.511-3.092 5.76 1.488 5.725 5.746"/><path fill="#951700" d="M222.794 127.72c.972 4.332 1.81 8.326 2.685 12.312.268 1.22.33 2.298-1.473 2.89a154 154 0 0 0-7.223-17.166c.547-1.207 1.433-1.679 2.93-1.748 2.834-.095 3.009 1.554 3.081 3.712"/><path fill="#881400" d="M127.075 345.63c-2.002.362-4.046.382-6.52.419-.427-4.898-.427-9.81-.427-14.724 1.83 2.26 4.277 3.868 4.903 7.071.332.904.457 1.522.807 2.37.21.234.156.229.173.208.538.674.83 1.455.861 2.64.036.77.098 1.223.203 2.017"/><path fill="#8B2E00" d="M203.482 406.838c.7.958 1.229 1.67 1.342 2.441.41 2.799 2.145 6.462-2.316 7.27-3.986.723-4.67-2.82-5.394-5.76-.157-.635-.133-1.316-.18-2.377 1.714-2.446 3.827-2.66 6.548-1.574"/><path fill="#660E00" d="M233.197 442.311c4.607-.157 9.26-.803 14.165.625-.421 3.447-2.838 4.805-6.122 4.854-3.767.057-6.75-1.25-8.043-5.479"/><path fill="#ED4800" d="M260.32 396.363c3.369-.482 6.601-.351 10.147.627.44 1.396.482 2.768.482 4.552-3.255.403-6.469.395-10.11.35-.495-1.731-.565-3.425-.52-5.529"/><path fill="#8B2E00" d="M283.71 408.604c.352.824.439 1.257.455 2.017-.23.481-.39.635-.38 1.073-.164 3.656-2.302 5.787-5.336 4.741-4.204-1.45-2.376-4.886-1.078-8.036 2.185-1.898 4.147-2.172 6.339.205"/><path fill="#ED4800" d="M210.103 397.421c3.742 0 7.093-1.308 10.832-2.431.37 1.673.399 3.392.273 5.514-3.463 2.802-6.914.773-10.652.581-.406-1.188-.463-2.233-.453-3.664"/><path fill="#551809" d="M257.744 430.233c3.625-.211 6.997-.222 10.831-.238.163 1.43-.138 2.864-.553 4.65-3.747.71-7.182.035-10.83-1.69-.33-.517-.265-.94-.136-1.68.188-.492.312-.667.688-1.042"/><path fill="#D64800" d="M189.646 404.62c-2.165-.867-3.662-3.949-7.222-1.811-.633-1.614-.946-3.361-1.201-5.487 2.29-.376 4.521-.373 7.172-.37.712 2.422 1.005 4.843 1.251 7.669"/><path fill="#A13600" d="M284.12 408.658c-1.994.03-3.844-.275-6.12-.558-.464-1.687-.502-3.397-.416-5.515 2.38-2.613 4.835-3.163 7.96-.96.71 2.695-.104 4.744-1.424 7.033"/><path fill="#D64800" d="M221.296 388.553c-3.179-.917-6.29-.13-9.797.424-.22-3.575 1.653-5.889 5.23-6.039 3.27-.137 4.275 2.416 4.567 5.615"/><path fill="#8B2E00" d="M260.9 413.468c2.224-3.56 4.73-5.41 8.234-1.181-2.741 5.353-4.948 5.646-8.235 1.181"/><path fill="#A13600" d="M203.87 406.628c-1.925 1.574-4.037 1.381-6.52 1.39-1.443-1.577-1.374-3.394-1.529-5.542 2.141-2.878 4.587-2.77 7.551-.914.407 1.785.465 3.211.499 5.066"/><path fill="#390600" d="M167.923 380.684c-4.555.099-6.382-3.728-8.682-6.9-1.163-1.603-2.088-3.38-3.177-5.421 2.767-2.622 3.452.408 4.207 1.73 2.128 3.723 4.317 7.346 7.652 10.59"/><path fill="#D64800" d="M203.78 401.507c-2.391.457-4.722.5-7.497.564-1.313-1.33-1.22-2.855-1.169-4.732 2.615-.374 5.156-.375 8.116-.39.483 1.373.546 2.759.55 4.558M285.988 401.565c-2.491.447-4.92.486-7.814.568-.463-1.738-.46-3.518-.307-5.715 2.58-.068 5.007.28 7.85.634.387 1.371.36 2.738.27 4.513M269.208 385.912c-1.764 3.092-5.134 1.498-7.856 3.01-.549.205-.698.33-1.071.267-.231-2.759.275-5.15 3.04-6.068 2.526-.839 4.346.501 5.887 2.79"/><path fill="#A11B00" d="M336.74 226.082c2.591 1.946 4.914.091 7.234.014 1.762-.06 3.533.177 5.621.497-3.188 2.136-6.776 3.85-11.168 4.492 1.15-2.31-3.86-2.52-1.686-5.003"/><path fill="#8B2E00" d="M212.85 413.965c2.093-3.853 4.373-4.267 6.986-.154-2.003 4.845-4.423 2.94-6.986.154"/><path fill="#D64800" d="M210.15 401.2c3.427-2.4 6.802.622 10.54-.279.465.42.564.853.567 1.613-3.526.257-7 1.035-10.723-.38-.382-.348-.41-.522-.383-.954"/><path fill="#A11B00" d="M332.279 253.98c-.634-.773-.948-1.55-1.272-2.652.217-2.027-.522-3.865.91-5.778 1.487 1.343 1.29 3.25 2.03 5.09.036 1.218.01 2.073-.086 3.354-.467.279-.865.13-1.582-.014"/><path fill="#3D0D04" d="M107.68 394.747c-2.95 1.604-6.211 2.06-9.575-.282 2.993-.381 6.147-.802 9.576.282M89.695 393.751c-1.986 1.597-4.256 1.922-6.604-.277 2.018-.42 4.188-.743 6.604.277"/><path fill="#A11B00" d="M321.912 307.324c1.486 1.41 1.259 3.227.426 5.352-1.37-1.428-1.083-3.243-.426-5.352"/><path fill="#390600" d="M334.955 233.046c-.79.578-1.549.835-2.615 1.136-2.319 1.533-4.29 1.877-6.192-.623 2.69-.823 5.386-1.176 8.486-1.502.387.24.37.454.321.989"/><path fill="#A13600" d="M259.878 389.279c.179-.276.627-.289.85-.283.1 1.467-.024 2.928-.352 4.687-1.157-1.093-.953-2.607-.498-4.404"/><path fill="#F55400" d="M296.686 54.967c-1.663 1.193-3.086.194-4.582-1.237 1.368.156 2.848.588 4.582 1.237"/><path fill="#2A0701" d="M367.77 400.787c-1.828 1.468-3.274.33-4.78-1.325 1.435.161 2.99.616 4.78 1.325M342.743 395.875c-1.128 1.309-2.447 1.46-3.783-.312 1.112-.535 2.359-.706 3.783.312"/><path fill="#3D0D04" d="M257.152 151.673c-.015-1.192.023-2.112.233-3.33.41-.321.648-.344 1.243-.374.125 1.173-.107 2.353-.606 3.78-.45.228-.633.212-.87-.076"/><path fill="#F55400" d="M198.685 51.306c-.09 1.45-.897 1.932-2.451.963.387-1.01 1.267-.99 2.451-.963"/><path fill="#2A0701" d="M351.77 396.896c-.881 1.205-1.876 1.209-2.824-.374.83-.468 1.758-.517 2.824.374M379.884 405.622c-.976.326-2.118.362-2.846-1.222 1.035-.373 1.942.098 2.846 1.222"/><path fill="#710F00" d="M127.142 343.923c-.579-.768-.86-1.544-1.129-2.645 1.023.171 1.603 1.015 1.978 2.368-.16.299-.356.284-.85.277"/><path fill="#B22100" d="M323.321 297.362c1.21.126 1.905.627.156 1.544-.242-.374-.249-.805-.156-1.544"/><path fill="#F9D190" d="M267.926 296.664c-.984.055-1.688-.502-1.722-2.018.563.317 1.126 1 1.722 2.018"/><path fill="#811200" d="M154.246 97.557c.029-.875.402-1.537 1.583-.756-.33.39-.821.607-1.583.756M170.216 97.154c.508-.972 1.14-1.007 1.735.227-.464.144-1 .057-1.735-.227"/><path fill="#3D0D04" d="M71.728 393.112c.11.824-.273 1.51-1.528 1.713-.122-.844.328-1.467 1.528-1.713"/><path fill="#2A0701" d="M356.808 397.87c-.657 1.017-1.3.792-1.878-.414.501-.105 1.092.031 1.878.413"/><path fill="#861400" d="M182.722 109.861c-1 .454-2.19.242-3.58-.624 1.024-.637 2.189-.237 3.58.624"/><path fill="#F05000" d="M161.728 64.543c-.114.93-.581 1.495-1.657.487.371-.32.885-.445 1.657-.487"/><path fill="#8B2E00" d="M276.965 386.156c.732.308.79.866.358 1.662-.73-.288-.827-.855-.358-1.662"/><path fill="#2A0701" d="M373.81 402.819c-.678 1.027-1.313.827-1.815-.481.496-.089 1.06.08 1.816.48"/><path fill="#F05000" d="M166.048 63.749c-.453.756-.972 1.121-1.888.421.324-.413.82-.634 1.586-.891.272-.036.294.301.302.47"/><path fill="#2A0701" d="M360.81 398.855c-.665 1.032-1.3.79-1.863-.43.499-.101 1.085.042 1.864.43"/><path fill="#881400" d="M301.734 109.052c-.227.923-1.106 1.1-2.386 1.107.455-.42 1.252-.793 2.386-1.107"/><path fill="#FC9329" d="M319.954 257.711c.085.297.026.706.045.912-1.255-.026-1.11-1.318-1.42-2.35.607.194.949.668 1.375 1.438"/><path fill="#F9D190" d="M269.33 299.486c-.351-.203-.75-.753-1.172-1.662.36.2.742.757 1.172 1.662M269.281 301.99c-.242-.5-.2-1.01-.084-1.898.358.157.64.692.928 1.542-.183.327-.372.337-.844.357"/><path fill="#F55400" d="M304.034 57.656c-.397.117-.989-.019-1.813-.357.385-.1 1.002.002 1.813.357"/><path fill="#A13600" d="M284.026 411.727c-.18.067-.311-.111-.386-.31-.022-.06.113-.179.315-.37.14.077.14.252.07.68"/><path fill="#660E00" d="M257.771 430.033c.093.26-.082.486-.476.802-.175.123-.213-.322-.205-.544s.456-.259.681-.258"/><path fill="#F55400" d="M283.862 51.396c0 .424-.132.991-.656.157-.03-.208.444-.27.656-.157"/><path fill="#811200" d="M372.452 46.808c-.241-.016-.334-.253-.335-.712.265-.02.396.218.335.712M110.422 46.733c.056.22-.321.341-.51.4-.35-.23-.333-.509.046-.897.185-.12.408.276.464.497"/><path fill="#060300" d="M256.742 151.295c.367.346.48.515.856.657.816 1.178 1.35 2.426 3.34 3.15 4.145-19.11 15.501-31.828 34.361-37.21 12.573-3.587 24.681-2.078 36.33 4.764a15.7 15.7 0 0 1 2.629 1.947c-.43 1.872-2.556 1.253-3.303 2.577.94 3.856 6.425 5.74 4.154 10.954-2.139.55-3.532-.437-4.759-1.537-6.616-5.933-14.671-8.035-23.583-8.933-.85-.1-1.337-.128-2.189-.129-1.348.035-2.271.315-3.533.766-14.843 2.155-26.532 14.65-28.64 29.524-.984 6.952-.875 13.518 2.386 20.2 3.62 10.463 11.379 16.239 20.619 20.515 1.492.69 3.112 1.082 4.868 2.073a5.6 5.6 0 0 1 1.183.797c1.971 4.67 5.39 5.953 9.834 5.677 4.22-.262 8.235-1.09 11.884-3.308 2.603-1.583 4.307-3.66 3.732-7.313.04-.596.086-.833.267-1.406 2.631-3.641 6.489-5.55 8.834-9.074 1.935-2.909 3.849-5.76 4.783-9.564 4.534-8.406 2.667-16.47.131-24.515-.695-2.205-2.03-4.227-1.708-7.037 1.39-2.584 3.247-.74 4.968-.675-.614-3.706-2.546-6.415-4.14-9.282-1.022-1.84-2.546-3.584-1.188-6.158 14.077 12.117 18.165 27.617 15.197 45.844-3.576 22.378-17.912 33.988-38.333 38.507-16.066 3.557-30.298-1.316-41.998-13.128-4.709-4.755-4.632-4.615-7.621 1.24-5.855 11.467-14.478 20.616-24.831 28.693-.337.15-.683.042-.863.04-.514-.167-.814-.38-1.191-.895-.11-.255-.118-.166-.08-.188-9.1-6.628-16.585-14.685-21.814-24.758-1.367-2.633-2.076-6.532-4.77-7.299-3.073-.874-4.578 3.178-6.648 5.068-20.185 18.426-50.398 15.35-68.566-4.39-5.943-6.456-8.932-14.257-10.117-23.198-1.919-13.926-.083-26.776 8.39-38.427 2.436 1.345 1.778 3.506 1.585 5.567-.255 2.708-1.002 5.497 1.41 8.152 1.103 3.612.338 6.843-.174 10.054-.76 4.764-.64 9.439 1.063 14.378.316.558.437.783.694 1.365.265 1.09.46 1.806.896 2.828 5.998 14.375 17.22 21.68 31.72 22.325 13.425.598 24.197-5.818 31.244-18.184 4.884-7.218 5.993-14.99 5.158-23.013-.23-2.21-.426-4.603-1.39-7.134-1.367-9.892-8.081-15.083-15.587-19.522-2.533-1.497-5.269-2.706-8.384-3.89-5.093-.774-9.921-.336-14.948-1.55-1.623-.995-2.085-2.325-1.654-3.612.801-2.397-.645-4.073-1.366-6.3 25.86-5.202 47.495 10.004 54.83 38.198 1.978-.617 2.338-2.653 3.652-4.207 12.72-8.487 20.607-8.453 32.38-.024"/><path fill="#E36E0D" d="M126.964 174.425c3.734 11.591 9.565 22.017 20.334 29.378 20.45 13.98 46.403 10.595 62.274-8.466.954-1.145 1.953-2.252 3.56-4.101 4.98 15.262 15.388 26.13 25.94 37.29-1.729.708-3.021-.233-4.39-1.295-7.703-5.977-14.431-12.695-18.539-21.795-3.099-6.866-3.515-6.954-8.754-1.218-9.21 10.084-20.52 15.027-34.097 14.74-24.492-.516-45.707-20.743-46.328-44.533M241.18 230.205c10.368-11.594 21.917-22.364 27.291-38.416 13.925 17.274 31.134 25.114 52.758 18.161 16.874-5.425 27.676-17.188 32.557-34.678 2.17 18.701-18.603 39.327-37.41 42.702-17.8 3.195-32.348-1.993-43.873-15.796-2.302-2.757-3.511-3.727-5.564.55-5.635 11.74-14.087 21.112-25.759 27.477"/><path fill="#1B0F0B" d="M139.11 150.139c-3.975-.1-5.216-1.8-4.322-5.412.658-2.66.802-5.45 1.147-8.618 3.383-5.83 8.47-9.433 13.81-13.285 5.127-2.72 10.132-4.747 15.865-5.84 5.889 1.577 4.66 4.84 2.43 8.71-.625 1.946-1.992 2.604-3.394 3.102-9.743 3.463-17.248 9.59-22.381 18.596-.66 1.158-1.478 2.204-3.154 2.747"/><path fill="#110905" d="M338.992 128.281c.736 4.562 4.465 7.242 5.755 11.183.463 1.412 1.123 2.76 1.592 4.17.46 1.38 1.28 3.017-.542 3.937-1.798.91-2.605-.622-3.506-1.85-.46-.627-1.21-1.043-2.188-1.606-3.416-.545-4.657-2.74-5.247-5.749.151-4.481-3.73-6.248-5.415-9.365-.657-1.215-2.696-1.936-1.727-3.687 1.1-1.987 2.89-.79 4.439-.51.484.088.985.076 1.884.091 1.874 1.027 3.343 2.072 4.955 3.386"/><path fill="#A11B00" d="M168.348 234.982c-.566-.54-.75-1.067-1.14-1.79.134-1.471.477-2.748.884-4.426 5.217.214 10.372.83 17.022 1.623-5.387 1.739-8.804 4.21-12.576 6.72-.8-1.733-2.135-2.192-4.19-2.127M363.842 161.479c2.04 3.573 1.265 7.738.302 12.199-.294-3.713-.303-7.725-.302-12.2M169.255 240.852c-.038-.366.172-.91.61-1.643.03.362-.166.914-.61 1.643M170.313 239.044c-.075-.223.135-.482.556-.88.05.19-.11.516-.556.88M171.312 238.042c-.075-.22.135-.48.556-.878.05.188-.11.513-.556.878"/><path fill="#E36E0D" d="M239.204 229.068c.22-.07.537.128.939.604-.224.073-.533-.132-.939-.604"/><path fill="#DA3400" d="M329.949 303.39c5.336-15.808 11.018-31.096 14.647-47.023.4-1.76.306-3.631.444-5.882 2.46-.001 2.99 2.188 3.537 3.97 3.348 10.926 7.19 21.81 4.535 33.568-.204.903.064 1.912.179 4.184 6.119-7.124 8.98-14.406 10.736-22.37 1.716-7.78.344-15.702 1.344-24.517 3.338 5.989 3.679 11.947 6.328 17.417 2.518 16.27.511 32.01-2.678 47.675-.82 4.025-2.044 7.904-4.393 11.6-.426-6.29-1.355-12.373-4.458-19.055-4.883 14.434-8.328 28.708-19.913 40.218-.939-14.698 6.018-27.446 4.471-41.62-5.713 3.713-8.917 9.878-15.387 12.392-.787-3.43.266-6.748.608-10.556"/><path fill="#881400" d="M362.595 328.936c-.214-.186-.305-.456-.344-.733-.006-.047.215-.125.331-.188.052.278.103.556.013.92"/><path fill="#DA3400" d="M329.008 314.012c.01.011-.232.349-.232.349s.002-.284.1-.332c.1-.048.123-.029.132-.017"/><path d="M333.995 319.985c.082-.349.325-.535.567-.722.084.276.168.551.09 1.01-.16.185-.496-.126-.657-.288M353.984 343.279c.246-.057.471.118.653.33.027.03-.151.238-.461.384-.226.021-.227-.47-.192-.714"/><path fill="#DA3400" d="M137.767 258.641c.944 7.665 4.297 14.282 6.19 21.32 1.937 7.204 4.477 14.245 6.91 21.692.495 3.93 1.828 7.467.812 11.387-6.745-1.885-10.072-7.757-15.092-12.115.012 13.469 2.56 26.603 4.057 39.973-11.61-9.65-13.97-24.037-19.422-37.693-2.816 5.63-3.388 11.188-4.887 17.826-6.537-15.136-7.406-30.033-7.372-45.558 1.028-10.38 2.495-20.186 8.02-29.206 0 4.007.096 8.016-.02 12.02-.286 10.012 1.441 19.551 6.382 28.374.567 1.012 1.155 2.035 1.898 2.915.366.434 1.168.852 1.666.751 1.126-.23.802-1.237.673-2.032-1.606-9.905.349-19.519 2.394-29.12.276-1.299.682-2.575 1.11-3.834.503-1.48 1.346-2.856 3.014-2.986 2.306-.18 1.654 2.052 2.274 3.237.463.883.828 1.818 1.393 3.049"/><path fill="#710F00" d="M126.003 340.687c-.278-.22-.6-.752-.942-1.613.287.215.592.757.942 1.613"/><path fill="#781000" d="M325.661 233.038c1.983 1.37 3.864.824 5.977 1.134.758 3.128-2.24 4.055-3.56 6.428-6.553-.949-13.016-2.23-18.496-6.128l.099-1.483c5.167 0 10.334 0 15.98.05"/><path d="M374.996 172.735c-.263.11-.585-.056-.96-.517.265-.117.582.062.96.517"/><path fill="#EA4100" d="M303.603 67.997c.498 6.453 6.66 7.21 10.325 10.75-.547 3.78-3.666 3.692-6.004 4.368-8.772 2.537-17.34 5.449-25.236 10.2-5.879 3.537-10.587 8.427-16.124 12.923-4.327 2.26-8.489 2.47-12.815 1.527-4.674-1.018-9.12.475-13.652 1.294-8.712 1.573-16.713.03-23.626-5.915-1.291-1.11-2.496-2.842-5.081-2.16-2.647-.15-4.446-1.368-6.153-2.68-9.33-7.175-19.909-11.793-31.053-15.272-2.036-.636-4.252-.995-5.303-3.598 3.002-1.808 5.877-.27 8.765.007 2.275.219 4.463-.203 4.91-2.279 1.053-4.884 3.955-4.497 7.483-3.39 1.12.35 2.3.318 3.673-.534 10.304 3.229 19.196 8.713 27.706 15.174-2.17-9.391-8.16-16.312-14.98-23.846 5.225.267 8.14 3.372 12.187 4.39 2.938 2.083 5.52 4.107 8.108 6.124.734.572 1.553.672 2.267.065.846-.719.911-1.704.622-2.733-.793-2.826-1.579-5.654-2.721-9.749 7.687 4.798 11.502 11.122 15.073 18.429 2.874-5.468 3.843-11.018 7.467-15.196.789-.91 1.15-2.947 2.821-2.014 1.287.718.652 2.386.373 3.67-.528 2.423-1.145 4.83-1.567 7.273-.158.912-.248 2.228.995 2.465.616.118 1.546-.475 2.08-1.004 3.442-3.407 7.557-5.923 11.638-9.021 3.236-1.47 6.253-2.69 9.27-3.91-5.203 9.08-13.504 16.147-15.721 28.129 13.658-11.106 27.871-19.035 44.273-23.487M226.51 61.519c-.025.01.026-.011 0 0M253.51 61.519c-.025.01.025-.011 0 0"/><path d="M149.613 233.03c-.357.882-1.235.9-2.389.204.548-.206 1.284-.193 2.389-.203"/><path fill="#A11B00" d="M152.51 228.517c-.026.01.025-.01 0 0"/><path fill="#C42800" d="M168.5 79.048c8.394 3.18 16.708 5.408 24.458 9.281 6.298 3.147 11.817 7.3 17.724 11.565 2.259.265 3.673 1.346 4.852 2.792 4.066 4.988 7.886 10.138 10.436 16.108.778 1.821 1.637 3.644.334 5.933-1.198 1.11-2.123 1.952-3.22 3.063-.957-.946-1.744-2.163-2.757-3.59-2.265-7.062-7.1-11.913-12.246-16.385-12.887-11.197-28.432-16.836-44.718-20.808-12.076-2.946-24.518-4.865-35.157-12.718.123-2.042.471-3.832.845-6.024 6.817 1.747 12.97 5.687 20.543 6.777 6.209 2.347 12.37 3.079 18.906 4.006"/><path fill="#EA4100" d="M205.515 63.52c-.027.01.026-.012 0 0M277.477 62.51c-.012-.026.012.028 0 0"/><path fill="#C42800" d="M265.684 105.218c12.703-15.092 29.888-21.026 48.044-25.899 10.346-1.252 20.112-3.535 29.92-7.237.862 2.957-1.339 5.303-1.64 8.495-1.475.974-2.931 1.568-4.692 2.308-16.464 4.301-33.03 6.952-48.585 13.343-11.486 4.72-19.98 12.74-26.464 23.555-1.526.981-2.77.83-4.287-.166-1.29-6.865 3.145-10.47 7.704-14.399"/><path fill="#D63500" d="M257.591 118.919c1.526.324 2.655.564 4.104.945-.85 2.975-2.021 5.807-3.429 8.896-2.056 1.084-3.318.122-4.722-1.42-.834-3.971.343-6.743 4.047-8.421"/><path fill="#DA3400" d="M253.57 126.932c1.839.108 2.817 1.027 4.171 1.926-.049 1.575-.386 2.993-.773 4.774-1.987.322-4.075.598-4.9-2.27-1.31-2.183-.97-3.576 1.503-4.43"/><path fill="#E33C00" d="M254.052 126.649c-1.407 1.044-2.036 2.168-2.043 4.014-3.167 2.726-6.326 2.696-9.634.554-2.562-1.66-5.401-2.308-8.52-2.302-2.84.005-5.64-.68-7.566-3.684-2.453-9.995-8.839-17.222-15.147-24.882 3.117-2.908 5.266.074 7.142 1.676 7.59 6.478 16.385 7.18 25.07 4.257 4.473-1.505 8.716-.957 12.49-.308 3.59.618 6.334.03 9.776-.96-2.25 4.42-4.88 8.854-7.57 13.64-1.977 2.45-2.953 5.05-3.998 7.995"/><path fill="#040302" d="M222.922 317.08c-.21-.245-.195-.721-.352-.9-.815-7.51 1.697-13.648 7.13-18.967 6.692-2.32 13.094-3.87 19.915-.22.389.063.499.201.577.16.59-.045 1.034.127 1.557.818 1.792 2.381 3.436 4.422 5.263 6.748 1.27 3.75 1.967 7.264 1.555 11.313-1.624 4.622-3.49 8.706-7.778 11.522-4.28 2.213-8.4 3.808-13.406 2.785-7.813-1.333-11.973-6.169-14.46-13.258"/><path fill="#881400" d="M120.488 348.476c.029-.013-.028.013 0 0"/><path fill="#F9D190" d="M251.688 298.038c-.202.067-.614-.138-1.221-.635.206-.073.609.144 1.22.635"/><path fill="#F69028" d="M205.364 183.24c-6.816 12.48-17.239 18.893-30.88 19.13-14.485.253-25.353-6.765-33.132-18.78-.811-1.253-1.481-2.597-2.246-4.246.548-1.247.58-2.152-.29-3.062-.294.003-.239-.14-.234-.063-1.777-10.046.03-19.489 5.658-28.082 1.799-2.747 3.782-5.601 8.035-5.644 2.729 2.578.65 4.746-.09 6.975-4.06 12.227-3.127 23.64 6.175 33.25 11.622 12.006 31.083 10.395 40.825-3.225 3.078-4.303 6.051-8.72 6.395-14.318.102-1.667.83-3.218 2.675-4.326 2.056.885 1.808 2.518 1.707 3.938-.448 6.264-1.502 12.397-4.598 18.454"/><path fill="#C12700" d="M245.632 157.684c8.9 1.846 16.887 13.323 17.27 24.196.418 11.83-4.93 21.73-11.629 30.62-10.704 14.206-9.807 14.176-20.879-.083-7.536-9.705-12.587-20.71-11.318-33.66 1.286-13.122 12.612-23.564 24.64-21.975.56 1.628-.483 1.893-1.392 2.22-10.94 3.948-17.243 14.2-15.86 25.822.077.653.177 1.304.226 2.31 1.521 8.172 5.4 14.813 10.257 20.981 2.296 2.916 4.496 3.41 7.326.505 7.637-7.84 12.863-16.687 12.447-28.39-1.082-7.242-3.93-13.103-9.453-17.566-1.41-1.139-2.53-2.621-1.635-4.98"/><path fill="#F95400" d="M225.317 188.287c-2.607-12.46 1.879-22.96 11.687-29.66 2.292-1.565 4.296-1.075 6.754-1.38.668-.145 1.085-.09 1.804.058.437 1.896 1.563 2.896 2.95 3.945 5.915 4.476 9.336 10.37 9.63 18.327-1.65 6.035-4.394 11.158-7.427 16.113-5.076 8.289-16.948 8.034-21.786-.463-1.221-2.147-2.346-4.371-3.612-6.94"/><path fill="#F69028" d="M342.303 177.174c-2.078 7.996-6.962 13.385-13.443 17.897-4.798.996-8.056-1.459-11.502-4.294-.754-2.639.427-3.99 2.123-5.335 9.383-7.446 12.657-17.251 10.892-28.923-.272-1.803-.587-3.602.307-5.744 1.675-1.455 3.235-2.197 5.563-1.863 6.148 3.322 6.397 9.194 7.159 14.618.617 4.391-.175 8.834-1.1 13.644"/><path fill="#E36E0D" d="M153.844 143.054c-6.333 1.574-8.538 6.51-10.697 11.206-3.06 6.656-3.854 13.882-4.44 21.58-3.583-7.97-3.39-16.399-.05-25.242 5.954-12.736 15.25-20.94 28.98-24.39 5.717.044 11.167-.784 16.816 1.194 1.836 1.646 1.192 3.134.078 4.913-2.147 1.65-4.336 1.769-6.486 1.626-6.78-.452-12.766 1.575-18.483 5.716-.483.32-.676.44-1.15.723a57 57 0 0 1-1.093.607c-.598.325-.93.51-1.473.859-.354.267-.493.375-.843.64-.36.25-.508.342-1.159.568M342.528 177.333c-.81-6.68.246-13.805-2.507-20.57-.926-2.276-1.574-4.645-3.677-6.623-4.87-3.613-7.633-9.07-13.372-11.641a20 20 0 0 1-1.287-.389 11.4 11.4 0 0 0-1.994-.502c-5.877-2.346-11.484-4.156-17.595-3.697-1.318.1-2.616-.304-4.037-1.34-1.219-2.955.451-3.763 2.57-4.003 1.798-.203 3.446-.61 5.13-2.076 11.467-.638 20.953 3.077 28.925 11.408 1.723 2.016 3.137 3.898 4.805 5.972 5.862 10.758 7.549 21.689 3.04 33.461"/><path fill="#EF8B25" d="M300.421 201.58c-12.64-2.776-21.416-9.94-26.82-21.681-.494-3.744-1.55-7.007-2.244-10.347-.422-2.034-1.057-4.211 1.379-5.982 4.09 1.334 3.289 5.122 4.41 7.827 3.898 9.413 10.342 15.912 20.238 18.735 3.536 1.01 7.26-.213 11.151.961 1.95 2.026 1.02 3.637-.28 4.97-2.164 2.218-4.244 4.624-7.834 5.516"/><path fill="#BA5308" d="M274.057 163.847c-3.216 1.329-2.105 3.653-1.847 5.636.398 3.071.972 6.119 1.398 9.625-8.773-19.597-.433-46.13 26.639-52.49 1.277.287 2.169.425 3.37-.121.779-.266 1.258-.365 2.093-.356.466 2.65-.569 3.964-3.296 3.838-1.364-.063-2.91-.426-4.2 1.194-.52 3.054-2.915 3.312-4.832 4.167-10.117 4.51-16.864 11.546-17.417 23.234-.087 1.828-.153 3.684-1.908 5.273"/><path fill="#F7A441" d="M300.278 201.788c2.702-3.042 5.636-5.968 8.638-9.215 2.036-2.98 4.644-4.182 8.33-3.588 3.24 3.052 7.514 3.385 10.948 6.028.282.311.206.469-.014.846-.637 1.653-1.315 3.031-2.699 3.732-7.58 3.84-15.267 7.03-24.178 2.79-.478-.343-.636-.41-1.025-.593"/><path fill="#1B0F0B" d="M300.985 202.489c9.483.773 18.357-.81 26.712-6.333 2.423 3.776.914 6.466-2.391 8.678-5.774 3.863-12.215 4.75-18.88 3.935-3.118-.382-5.546-2.165-5.44-6.28"/><path fill="#BA5308" d="M183.965 131.872c.257-1.496.517-2.631.832-4.05 11.15 4.042 20.843 9.849 24.123 22.836-.144.856-.412 1.257-1.172 1.625-2.158-.402-2.977-1.887-3.814-3.3-3.9-6.591-8.848-11.918-16.51-14.131-1.425-.412-2.76-1.145-3.459-2.98"/><path fill="#DD660A" d="M207.386 152.71c.585-.67.824-.993 1.307-1.494 3.721 10.972 2.67 21.69-3.127 32.214.937-5.321 2.27-10.858 3.315-16.45.317-1.695-.162-3.54-.495-5.647-3.036-2.633-2.771-5.372-1-8.623"/><path fill="#E36E0D" d="M303.587 126.288c-.21 1.742-1.154 2-2.725.583.646-.374 1.521-.5 2.725-.583M138.506 176.635c1.294-.002 1.439.816.758 2.129-.383-.438-.579-1.108-.758-2.129"/><path fill="#B22100" d="M345.485 299.516c-.01-.023.01.024 0 0"/><path fill="#FA5900" d="M222.49 90.481c.025-.01-.024.01 0 0"/><path fill="#050201" d="M207.493 152.099c.33 2.856.422 5.449.594 8.472-1.284 10.942-4.906 20.388-13.926 26.662-18.916 13.159-43.757.905-45.75-22.474-.631-7.411.03-14.626 4.805-21.236.126-.337-.015-.496-.106-.44.114-.231.334-.505.78-.926.208-.163.12-.144.13-.1.392-.642.783-1.32 1.743-1.888.226-.187.236-.17.229-.176.16-.163.327-.32.722-.735 7.765-6.83 16.726-8.37 26.788-7.7 11.646 2.806 19.747 9.196 23.991 20.541"/><path fill="#ED4800" d="M225.097 188.355c2.64 1.013 3.425 3.922 5.104 6.093 6.182 7.995 14.968 7.176 19.982-1.485 2.461-4.25 3.32-9.43 7.621-12.895 2.205 8.371-1.531 15.383-5.694 22.124-1.884 3.05-4.541 5.664-7.06 8.27-4.18 4.324-5.126 4.07-9.256-.69-5.337-6.149-8.47-13.341-10.697-21.417"/><path fill="#FC9329" d="M234.438 180.281c-1.813-2.71-1.501-5.416-1.293-8.021.289-3.61 2.357-6.22 5.669-7.5 3.164-1.222 5.737.204 8.002 2.95 1.399 2.78 2.394 5.288.456 8.327-2.365 1.621-4.5 2.803-6.534 4.18-1.816 1.229-3.9 1.758-6.3.064"/><path fill="#F66500" d="M245.681 176.22c1.664-2.443 1.283-4.943 1.325-7.803 4.952 4.07 4.752 10.03 3.55 15.591-1.264 5.85-7.322 6.497-12.49 1.482 1.47-4.016 4.624-6.355 7.615-9.27"/><path fill="#EF8B25" d="M245.59 176.03c-.832 3.983-3.17 7.045-7.285 9.03-2.406-.718-3.359-2.475-4.158-4.723 4.602.95 6.93-4.215 11.442-4.308"/><path fill="#050201" d="M317.8 188.923c-2.81 1.211-5.44 2.17-8.442 3.229-20.632 3.42-34.899-13.523-35.567-27.752-1.35-11.335 2.652-20.01 11.012-26.975 3.699-3.081 8.085-4.334 12.873-5.786 8.186-.134 15.962.133 23.036 5.03.521.103.726.08 1.029.35.098.293.113.172.053.177 4.805 1.992 7.668 5.88 9.94 10.775.139.583.169.822.158 1.421-.137.58-.234.801-.537 1.318 4.482 14.297-.386 28.225-13.555 38.213"/><path fill="#EF8B25" d="M331.168 149.224c-2.879-4.184-5.17-8.456-9.26-11.735 7.02.833 10.809 5.991 14.117 12.106-1.37.696-2.765 1.036-4.518 1.393-.398-.153-.437-.324-.423-.753.131-.439.21-.62.084-1.011"/><path fill="#F69028" d="M155.682 140.067c-.173.527-.653 1.138-1.393 1.892-.134-.732.111-1.521 1.393-1.892M156.776 139.157c.118.187-.051.454-.567.737-.027-.14.181-.365.567-.737M153.886 142.154c.046.188-.12.536-.576.934-.072-.224.147-.499.576-.934"/><path fill="#EF8B25" d="M321.811 137.148c.028.164-.447.015-.614-.169-.168-.184.282-.308.282-.308s.304.312.332.477"/><path fill="#E23F00" d="M159.52 159.791c2.055 16.004 12.544 25.015 26.101 22.286 1.928-.389 3.754-1.28 5.996-2.015 1.682-.574 2.1.307 2.52 1.646-14.309 13.734-36.258 7.236-41.34-12.28 1.113-2.364 1.596-4.61 2.674-6.593.835-1.538 1.506-3.316 4.05-3.044"/><path fill="#EFD499" d="M183.247 155.617c-1.522-2.446-1.812-4.794-.941-7.017 1.377-3.514 4.19-5.186 7.923-4.433 3.858.779 5.51 3.766 5.262 7.36-.265 3.849-2.395 6.472-6.672 6.606-2.111.066-3.89-.646-5.572-2.516"/><path fill="#D63500" d="M159.997 159.686c-2.853 1.443-2.775 4.257-3.744 6.37-.624 1.359-.76 2.865-3.062 2.954-1.876-2.914-1.004-6.063-1.111-9.561 2.199-3.045 4.072-6.124 8.56-4.735.03 1.728-.22 3.185-.643 4.972"/><path fill="#811200" d="M164.828 140.24c4.953-4.17 10.491-4.41 16.586-4.14.34 3.777-3.735 1.335-5.112 3.725a167 167 0 0 1-8.726 5.18c-3.443-.063-3.658-1.961-2.748-4.766"/><path fill="#A11B00" d="M164.741 139.956c.174 1.725.635 3.344 2.217 4.917-.75 1.46-1.795 2.694-3.111 4.042-.701.194-1.086.37-1.622.906-.203.252.06.212.087.342-2.456 1.53-4.59 1.44-6.215-1.741 1.744-4.087 4.628-6.643 8.644-8.466"/><path fill="#B92200" d="M155.67 148.153c1.978 1.027 3.696 2.08 6.267 2.052.81 1.633-.091 2.892-.76 4.52-3.72-.035-5.243 3.712-8.694 4.218-.165-3.764.976-7.306 3.187-10.79"/><path fill="#551809" d="M176.498 140.09c-.729-4.206 2.971-2.469 5.082-3.733 3.63-.2 6.536 1.107 9.355 3.056-4.735.043-9.406-.188-14.437.676"/><path fill="#D63500" d="M194.47 181.943c-.854-.435-1.434-1-2.25-1.76.564-.801 1.363-1.407 2.452-2.116.99-.484 1.54-.204 2.159.606-.617 1.254-1.353 2.197-2.362 3.27"/><path fill="#3D0D04" d="M201.143 170.148c.053-1.699.514-3.006 2.02-3.764 1.475 2.168.232 3.639-.896 5.399-.92-.128-.716-.846-1.124-1.635"/><path fill="#A13600" d="M197.218 178.836c-.766-.105-1.263-.359-2.009-.742.55-1.06 1.348-1.989 2.408-3.084.834-.342 1.285-.18 1.57.716a14 14 0 0 1-1.97 3.11"/><path fill="#710F00" d="M199.403 175.936c-.52-.12-.781-.424-1.283-.91.467-1.163 1.175-2.145 2.152-3.27.577-.195.884-.248 1.131.164-.23 1.78-.827 2.885-2 4.016"/><path fill="#710F00" d="M200.88 170.195c.39.213.714.714 1.086 1.517.047.303-.283.498-.453.585-.3-.043-.431-.173-.767-.493-.113-.568-.021-.945.134-1.609"/><path fill="#B92200" d="M162.38 150.126c-.039-.325.28-.597.898-.983.018.27-.26.653-.898.983"/><path fill="#E23F00" d="M303.326 188.958c-6.313-.258-11.889-1.622-16.304-6.618-.076-1.286.45-1.942 1.66-2.388 15.136 7.876 31.785-1.679 31.993-18.474 5.191-2.228 5.734 2.211 7.683 5.236-1.374 12.196-9.829 20.716-21.992 22.218-1.183.054-1.964.07-3.04.026"/><path fill="#EFD499" d="M303.257 153.973c-2.536 4.742-6.259 5.22-10.258 3.302-3.187-1.53-4.358-4.675-3.282-7.981 1.18-3.628 3.948-5.625 7.984-5.186 4.34.472 6.645 4.346 5.556 9.865"/><path fill="#8E1500" d="M318.179 150.144a244 244 0 0 1-6.979-6.902c-1.392-1.613-1.733-3.08-.488-5.065 6.456 1.164 11.213 4.49 14.43 10.346-1.604 3.113-3.934 3.17-6.963 1.62"/><path fill="#660E00" d="M311.036 137.87c.01 1.397-.007 2.824-.024 4.676-6.36-2.38-12.848-4.481-20.049-3.059 5.278-4.244 11.185-4.04 17.583-2.778.792.696 1.407.777 2.251 1.089.255.168.213.1.24.071"/><path fill="#B22100" d="M317.891 150.229c2.208.11 4.303-.959 6.919-1.324 1.806 1.537 2.664 3.383 3.112 5.786-1.417 5.27-2.936 5.596-7.46 1.584-.997-2.102-1.734-3.89-2.57-6.046"/><path fill="#D63500" d="M320.216 156.394c2.356-1.454 5.142 4.344 7.483-1.113 1.507 3.396 1.803 7.115 1 11.33-3.684-.203-3.646-5.05-7.582-5.53-.5-1.426-.693-2.84-.9-4.687"/><path fill="#C42800" d="M288.86 179.62c-.38.899-.913 1.516-1.722 2.273-.84-.33-1.404-.801-2.094-1.522-.556-1.099-.866-1.965-.268-3.303 1.496.508 2.714 1.39 4.084 2.552"/><path fill="#8B2E00" d="M284.987 176.415c.036 1.136.004 1.993-.05 3.278-1.372-.338-2.173-1.584-3.027-3.18-.48-1.145-.557-1.94.716-2.565 1.049.733 1.671 1.46 2.361 2.467"/><path fill="#660E00" d="M282.925 173.64c-.233.85-.594 1.388-1.038 2.25-1.617-1.296-2.986-2.98-2.633-5.478 2.382-.181 2.62 1.756 3.671 3.227"/><path fill="#3D0D04" d="M277.95 165.674c1.23.712 2.04 1.544 1.311 2.808-.133.231-.973.348-1.235.162-1.119-.793-1.182-1.834-.076-2.97"/><path fill="#B62200" d="M303.249 189.095c.515-.954 1.355-1.095 2.51-.371-.56.826-1.42.724-2.51.371"/><path fill="#8E1500" d="M310.88 137.7c-.408.074-.988-.117-1.776-.543.396-.064 1 .107 1.776.544"/><path fill="#F69028" d="M330.98 149.258c.329-.095.456.148.26.6-.104.118-.242-.355-.26-.6"/></svg>